<svg width="612" height="405" viewBox="0 0 612 405" fill="none" xmlns="http://www.w3.org/2000/svg">
<g filter="url(#filter0_d_142_2958)">
<rect x="5.5" y="0.0712891" width="601" height="394.459" rx="14.7432" fill="#0A0A0A" fill-opacity="0.95" shape-rendering="crispEdges"/>
<rect x="6.1143" y="0.685589" width="599.771" height="393.231" rx="14.1289" stroke="#2D2D2D" stroke-width="1.2286" shape-rendering="crispEdges"/>
<path d="M25.998 26.2075H26.8825V18.1872H25.998V17.0372H30.1703C30.6617 17.0372 31.0942 17.106 31.4677 17.2436C31.851 17.3812 32.1704 17.5679 32.426 17.8038C32.6914 18.0397 32.8879 18.3248 33.0157 18.6589C33.1533 18.9833 33.2221 19.3371 33.2221 19.7204V19.8974C33.2221 20.1824 33.1779 20.4429 33.0894 20.6788C33.001 20.9146 32.8781 21.126 32.7208 21.3127C32.5636 21.4995 32.3768 21.6616 32.1606 21.7992C31.9542 21.927 31.7281 22.0253 31.4824 22.0941V22.271C31.9739 22.4086 32.3867 22.674 32.7208 23.0672C33.055 23.4505 33.2221 23.9223 33.2221 24.4825V24.6594C33.2221 25.0427 33.1533 25.4015 33.0157 25.7357C32.8879 26.06 32.6914 26.3451 32.426 26.5908C32.1704 26.8267 31.851 27.0134 31.4677 27.151C31.0942 27.2886 30.6617 27.3574 30.1703 27.3574H25.998V26.2075ZM28.121 26.2075H30.0818C30.6617 26.2075 31.1335 26.0649 31.4972 25.7799C31.8608 25.485 32.0427 25.0821 32.0427 24.571V24.4825C32.0427 23.9517 31.8707 23.534 31.5267 23.2293C31.1826 22.9148 30.7158 22.7575 30.126 22.7575H28.121V26.2075ZM28.121 21.6076H30.126C30.7158 21.6076 31.1826 21.4552 31.5267 21.1505C31.8707 20.8458 32.0427 20.4281 32.0427 19.8974V19.8089C32.0427 19.3076 31.8608 18.9145 31.4972 18.6295C31.1335 18.3346 30.6617 18.1872 30.0818 18.1872H28.121V21.6076ZM41.4238 27.3574H40.1854V23.9075C40.1854 23.652 40.1264 23.4554 40.0085 23.3178C39.8905 23.1802 39.6841 23.1114 39.3893 23.1114H36.1752V27.3574H34.9368V17.0372H38.6226C39.1534 17.0372 39.6153 17.1158 40.0085 17.2731C40.4016 17.4205 40.726 17.622 40.9815 17.8776C41.2469 18.1331 41.4435 18.4329 41.5713 18.7769C41.7089 19.1111 41.7777 19.4649 41.7777 19.8384V20.2807C41.7777 20.664 41.6695 21.0473 41.4533 21.4307C41.2469 21.814 40.9226 22.1088 40.4803 22.3153V22.4922C40.7751 22.5413 41.0061 22.6593 41.1732 22.846C41.3403 23.0328 41.4238 23.2981 41.4238 23.6421V27.3574ZM36.1752 21.9614H38.4752C39.173 21.9614 39.689 21.814 40.0232 21.5191C40.3672 21.2144 40.5392 20.7721 40.5392 20.1922V19.9269C40.5392 19.4059 40.3672 18.9882 40.0232 18.6737C39.689 18.3493 39.173 18.1872 38.4752 18.1872H36.1752V21.9614ZM48.9326 24.7921H44.5096L43.7577 27.3574H42.4309L45.5564 17.0372H47.8858L51.0114 27.3574H49.6845L48.9326 24.7921ZM46.6327 17.5679L44.8487 23.6421H48.5935L46.8096 17.5679H46.6327ZM57.267 26.8267H57.4439V17.0372H58.6823V27.3574H56.2055L53.2274 17.5679H53.0504V27.3574H51.812V17.0372H54.2889L57.267 26.8267ZM60.3381 17.0372H63.729C65.0067 17.0372 65.9405 17.3419 66.5302 17.9513C67.1199 18.5607 67.4148 19.5337 67.4148 20.8704V23.5242C67.4148 24.8609 67.1199 25.834 66.5302 26.4433C65.9405 27.0527 65.0067 27.3574 63.729 27.3574H60.3381V26.1927H61.2227V18.1872H60.3381V17.0372ZM63.5521 26.2075C64.0042 26.2075 64.3924 26.1632 64.7168 26.0748C65.051 25.9863 65.3262 25.8389 65.5424 25.6325C65.7587 25.4162 65.9159 25.1312 66.0142 24.7774C66.1223 24.4235 66.1764 23.9763 66.1764 23.4357V20.9589C66.1764 20.4183 66.1223 19.9711 66.0142 19.6172C65.9159 19.2634 65.7587 18.9833 65.5424 18.7769C65.3262 18.5607 65.051 18.4083 64.7168 18.3198C64.3924 18.2314 64.0042 18.1872 63.5521 18.1872H62.4611V26.2075H63.5521ZM77.5524 17.0372H84.0983V18.1872H81.4446V26.2075H84.0983V27.3574H77.5524V26.2075H80.2061V18.1872H77.5524V17.0372ZM85.9162 17.0372H89.3072C90.5849 17.0372 91.5187 17.3419 92.1084 17.9513C92.6981 18.5607 92.993 19.5337 92.993 20.8704V23.5242C92.993 24.8609 92.6981 25.834 92.1084 26.4433C91.5187 27.0527 90.5849 27.3574 89.3072 27.3574H85.9162V26.1927H86.8008V18.1872H85.9162V17.0372ZM89.1303 26.2075C89.5824 26.2075 89.9706 26.1632 90.295 26.0748C90.6291 25.9863 90.9044 25.8389 91.1206 25.6325C91.3368 25.4162 91.4941 25.1312 91.5924 24.7774C91.7005 24.4235 91.7545 23.9763 91.7545 23.4357V20.9589C91.7545 20.4183 91.7005 19.9711 91.5924 19.6172C91.4941 19.2634 91.3368 18.9833 91.1206 18.7769C90.9044 18.5607 90.6291 18.4083 90.295 18.3198C89.9706 18.2314 89.5824 18.1872 89.1303 18.1872H88.0393V26.2075H89.1303ZM110.443 22.7575H109.013V27.3574H105.711C105.219 27.3574 104.782 27.2886 104.398 27.151C104.015 27.0134 103.696 26.8267 103.44 26.5908C103.185 26.3451 102.988 26.06 102.85 25.7357C102.723 25.4015 102.659 25.0427 102.659 24.6594V24.4825C102.659 23.9223 102.826 23.4505 103.16 23.0672C103.494 22.674 103.907 22.4086 104.398 22.271V22.0941C103.907 21.9663 103.494 21.7108 103.16 21.3275C102.826 20.9343 102.659 20.4576 102.659 19.8974V19.7204C102.659 19.3371 102.723 18.9833 102.85 18.6589C102.988 18.3248 103.185 18.0397 103.44 17.8038C103.696 17.5679 104.015 17.3812 104.398 17.2436C104.782 17.106 105.219 17.0372 105.711 17.0372H107.598V18.1872H105.799C105.219 18.1872 104.747 18.3346 104.384 18.6295C104.02 18.9145 103.838 19.3076 103.838 19.8089V19.8974C103.838 20.4281 104.01 20.8458 104.354 21.1505C104.698 21.4552 105.165 21.6076 105.755 21.6076H107.775V20.0448H109.013V21.6076H110.443V22.7575ZM107.775 26.2075V22.7575H105.755C105.165 22.7575 104.698 22.9148 104.354 23.2293C104.01 23.534 103.838 23.9517 103.838 24.4825V24.571C103.838 25.0821 104.02 25.485 104.384 25.7799C104.747 26.0649 105.219 26.2075 105.799 26.2075H107.775ZM122.468 22.4037H127.068V27.3574H125.918V26.119H125.741C125.574 26.5515 125.279 26.9004 124.856 27.1658C124.434 27.4311 123.942 27.5638 123.382 27.5638C122.271 27.5638 121.396 27.2051 120.758 26.4876C120.129 25.7701 119.814 24.7233 119.814 23.3473V21.0473C119.814 19.7106 120.133 18.6737 120.772 17.9365C121.411 17.1994 122.301 16.8308 123.441 16.8308C124.031 16.8308 124.552 16.9291 125.004 17.1256C125.456 17.3124 125.834 17.5778 126.139 17.9218C126.444 18.256 126.675 18.654 126.832 19.116C126.989 19.5681 127.068 20.0546 127.068 20.5756V20.7525H125.829V20.5756C125.829 20.2414 125.78 19.917 125.682 19.6025C125.593 19.288 125.451 19.0128 125.254 18.7769C125.068 18.5312 124.822 18.3395 124.517 18.2019C124.222 18.0545 123.864 17.9808 123.441 17.9808C122.645 17.9808 122.045 18.2707 121.642 18.8506C121.249 19.4305 121.052 20.1922 121.052 21.1358V23.2588C121.052 24.2712 121.249 25.0526 121.642 25.603C122.045 26.1436 122.655 26.4139 123.47 26.4139C124.208 26.4139 124.783 26.178 125.195 25.7062C125.618 25.2344 125.829 24.5759 125.829 23.7306V23.5537H122.468V22.4037ZM129.682 17.0372V23.878C129.682 24.7135 129.873 25.3474 130.257 25.7799C130.65 26.2025 131.225 26.4139 131.982 26.4139C132.739 26.4139 133.309 26.2025 133.692 25.7799C134.085 25.3474 134.282 24.7135 134.282 23.878V17.0372H135.52V23.878C135.52 25.0771 135.206 25.9912 134.576 26.6203C133.947 27.2493 133.083 27.5638 131.982 27.5638C130.881 27.5638 130.016 27.2493 129.387 26.6203C128.758 25.9912 128.443 25.0771 128.443 23.878V17.0372H129.682ZM137.235 17.0372H143.781V18.1872H141.127V26.2075H143.781V27.3574H137.235V26.2075H139.889V18.1872H137.235V17.0372ZM145.599 17.0372H148.99C150.267 17.0372 151.201 17.3419 151.791 17.9513C152.38 18.5607 152.675 19.5337 152.675 20.8704V23.5242C152.675 24.8609 152.38 25.834 151.791 26.4433C151.201 27.0527 150.267 27.3574 148.99 27.3574H145.599V26.1927H146.483V18.1872H145.599V17.0372ZM148.813 26.2075C149.265 26.2075 149.653 26.1632 149.977 26.0748C150.312 25.9863 150.587 25.8389 150.803 25.6325C151.019 25.4162 151.176 25.1312 151.275 24.7774C151.383 24.4235 151.437 23.9763 151.437 23.4357V20.9589C151.437 20.4183 151.383 19.9711 151.275 19.6172C151.176 19.2634 151.019 18.9833 150.803 18.7769C150.587 18.5607 150.312 18.4083 149.977 18.3198C149.653 18.2314 149.265 18.1872 148.813 18.1872H147.722V26.2075H148.813ZM154.434 17.0372H160.685V18.1872H155.673V21.6076H160.597V22.7575H155.673V26.2075H160.774V27.3574H154.434V17.0372ZM162.857 17.0372H164.096V26.2075H169.492V27.3574H162.857V17.0372ZM171.339 17.0372H177.885V18.1872H175.231V26.2075H177.885V27.3574H171.339V26.2075H173.993V18.1872H171.339V17.0372ZM185.158 26.8267H185.335V17.0372H186.573V27.3574H184.096L181.118 17.5679H180.941V27.3574H179.703V17.0372H182.18L185.158 26.8267ZM188.539 17.0372H194.79V18.1872H189.777V21.6076H194.701V22.7575H189.777V26.2075H194.878V27.3574H188.539V17.0372ZM202.623 20.0153C202.623 19.6811 202.554 19.3863 202.416 19.1307C202.289 18.8752 202.112 18.6639 201.886 18.4968C201.66 18.3297 201.399 18.2019 201.104 18.1134C200.809 18.025 200.5 17.9808 200.175 17.9808C199.89 17.9808 199.62 18.0201 199.365 18.0987C199.109 18.1675 198.878 18.2707 198.672 18.4083C198.475 18.5459 198.318 18.7179 198.2 18.9243C198.082 19.1209 198.023 19.3519 198.023 19.6172V19.7057C198.023 19.9907 198.082 20.2365 198.2 20.4429C198.318 20.6394 198.49 20.8114 198.716 20.9589C198.952 21.0965 199.242 21.2144 199.586 21.3127C199.93 21.4012 200.333 21.4798 200.795 21.5486C201.876 21.7157 202.672 22.0351 203.183 22.5069C203.694 22.9689 203.95 23.593 203.95 24.3793V24.5562C203.95 24.9985 203.871 25.4064 203.714 25.7799C203.566 26.1436 203.34 26.4581 203.036 26.7235C202.741 26.9888 202.372 27.1952 201.93 27.3427C201.488 27.4901 200.976 27.5638 200.397 27.5638C199.738 27.5638 199.153 27.4705 198.642 27.2837C198.141 27.0871 197.718 26.8218 197.374 26.4876C197.04 26.1436 196.784 25.7455 196.608 25.2934C196.431 24.8314 196.342 24.3302 196.342 23.7896V23.3473H197.581V23.7011C197.581 24.6054 197.826 25.2835 198.318 25.7357C198.819 26.1878 199.512 26.4139 200.397 26.4139C201.163 26.4139 201.738 26.2468 202.121 25.9126C202.515 25.5686 202.711 25.1165 202.711 24.5562V24.4678C202.711 23.9272 202.51 23.5144 202.107 23.2293C201.714 22.9443 201.07 22.7379 200.175 22.6101C199.654 22.5413 199.183 22.4381 198.76 22.3005C198.347 22.1531 197.993 21.9663 197.699 21.7403C197.404 21.5044 197.178 21.2243 197.02 20.8999C196.863 20.5756 196.784 20.1922 196.784 19.7499V19.573C196.784 19.17 196.868 18.8015 197.035 18.4673C197.202 18.1331 197.433 17.8431 197.728 17.5974C198.033 17.3517 198.391 17.165 198.804 17.0372C199.227 16.8996 199.689 16.8308 200.19 16.8308C200.77 16.8308 201.286 16.9143 201.738 17.0814C202.2 17.2485 202.588 17.4746 202.903 17.7596C203.217 18.0348 203.453 18.3641 203.611 18.7474C203.778 19.1209 203.861 19.514 203.861 19.9269V20.5461H202.623V20.0153Z" fill="#D7D7D7"/>
<rect x="20.2432" y="42.6436" width="49" height="49" rx="24.5" fill="#0C0C0C"/>
<rect x="20.2432" y="42.6436" width="49" height="49" rx="24.5" fill="white" fill-opacity="0.04"/>
<path d="M36.7432 71.1436L41.3289 66.5578C42.11 65.7767 43.3763 65.7767 44.1574 66.5578L48.7432 71.1436M46.7432 69.1436L48.3289 67.5578C49.11 66.7767 50.3763 66.7767 51.1574 67.5578L52.7432 69.1436M46.7432 63.1436H46.7532M38.7432 75.1436H50.7432C51.8477 75.1436 52.7432 74.2481 52.7432 73.1436V61.1436C52.7432 60.039 51.8477 59.1436 50.7432 59.1436H38.7432C37.6386 59.1436 36.7432 60.039 36.7432 61.1436V73.1436C36.7432 74.2481 37.6386 75.1436 38.7432 75.1436Z" stroke="white" stroke-opacity="0.48" stroke-width="2" stroke-linecap="round" stroke-linejoin="round"/>
<rect x="77.7432" y="43.1436" width="513.514" height="49" rx="11.5" stroke="white" stroke-opacity="0.08"/>
<path d="M96.9252 72.6436V68.9056L93.4392 62.8436H94.7832L97.4152 67.5476H97.6112L100.243 62.8436H101.587L98.1012 68.9056V72.6436H96.9252ZM104.897 72.8396C104.207 72.8396 103.595 72.6949 103.063 72.4056C102.541 72.1162 102.13 71.7102 101.831 71.1876C101.542 70.6556 101.397 70.0302 101.397 69.3116V69.1296C101.397 68.4202 101.542 67.7996 101.831 67.2676C102.13 66.7356 102.541 66.3249 103.063 66.0356C103.595 65.7462 104.207 65.6016 104.897 65.6016C105.588 65.6016 106.195 65.7462 106.717 66.0356C107.249 66.3249 107.66 66.7356 107.949 67.2676C108.248 67.7996 108.397 68.4202 108.397 69.1296V69.3116C108.397 70.0302 108.248 70.6556 107.949 71.1876C107.66 71.7102 107.249 72.1162 106.717 72.4056C106.195 72.6949 105.588 72.8396 104.897 72.8396ZM104.897 71.8456C105.625 71.8456 106.204 71.6169 106.633 71.1596C107.072 70.6929 107.291 70.0676 107.291 69.2836V69.1576C107.291 68.3736 107.072 67.7529 106.633 67.2956C106.204 66.8289 105.625 66.5956 104.897 66.5956C104.179 66.5956 103.6 66.8289 103.161 67.2956C102.723 67.7529 102.503 68.3736 102.503 69.1576V69.2836C102.503 70.0676 102.723 70.6929 103.161 71.1596C103.6 71.6169 104.179 71.8456 104.897 71.8456ZM113.006 72.7696C112.511 72.7696 112.054 72.6622 111.634 72.4476C111.223 72.2329 110.896 71.9156 110.654 71.4956C110.42 71.0662 110.304 70.5482 110.304 69.9416V65.7976H111.41V69.8576C111.41 70.5389 111.578 71.0336 111.914 71.3416C112.259 71.6496 112.721 71.8036 113.3 71.8036C113.953 71.8036 114.49 71.5889 114.91 71.1596C115.33 70.7302 115.54 70.0909 115.54 69.2416V65.7976H116.646V72.6436H115.568V71.4816H115.372C115.222 71.8082 114.966 72.1069 114.602 72.3776C114.238 72.6389 113.706 72.7696 113.006 72.7696ZM118.96 72.6436V65.7976H120.038V66.6376H120.234C120.355 66.3389 120.542 66.1196 120.794 65.9796C121.046 65.8396 121.377 65.7696 121.788 65.7696H122.6V66.7776H121.718C121.223 66.7776 120.822 66.9176 120.514 67.1976C120.215 67.4682 120.066 67.8929 120.066 68.4716V72.6436H118.96ZM127.329 72.6436V71.5936H128.701V63.8936H127.329V62.8436H132.243C132.812 62.8436 133.316 62.9462 133.755 63.1516C134.203 63.3569 134.548 63.6462 134.791 64.0196C135.043 64.3836 135.169 64.8129 135.169 65.3076V65.4196C135.169 65.8769 135.08 66.2549 134.903 66.5536C134.726 66.8429 134.516 67.0716 134.273 67.2396C134.03 67.3982 133.792 67.5149 133.559 67.5896V67.7856C133.792 67.8416 134.035 67.9536 134.287 68.1216C134.539 68.2802 134.749 68.5089 134.917 68.8076C135.094 69.1062 135.183 69.4842 135.183 69.9416V70.0816C135.183 70.6136 135.052 71.0756 134.791 71.4676C134.539 71.8502 134.189 72.1442 133.741 72.3496C133.302 72.5456 132.798 72.6436 132.229 72.6436H127.329ZM129.877 71.5796H132.103C132.719 71.5796 133.19 71.4349 133.517 71.1456C133.844 70.8562 134.007 70.4642 134.007 69.9696V69.8436C134.007 69.3489 133.844 68.9569 133.517 68.6676C133.19 68.3782 132.719 68.2336 132.103 68.2336H129.877V71.5796ZM129.877 67.1696H132.145C132.705 67.1696 133.153 67.0296 133.489 66.7496C133.825 66.4602 133.993 66.0822 133.993 65.6156V65.4756C133.993 64.9996 133.825 64.6216 133.489 64.3416C133.162 64.0522 132.714 63.9076 132.145 63.9076H129.877V67.1696ZM137.089 72.6436V65.7976H138.167V66.6376H138.363C138.484 66.3389 138.671 66.1196 138.923 65.9796C139.175 65.8396 139.506 65.7696 139.917 65.7696H140.729V66.7776H139.847C139.352 66.7776 138.951 66.9176 138.643 67.1976C138.344 67.4682 138.195 67.8929 138.195 68.4716V72.6436H137.089ZM144.234 72.8396C143.758 72.8396 143.324 72.7556 142.932 72.5876C142.54 72.4196 142.232 72.1769 142.008 71.8596C141.784 71.5422 141.672 71.1549 141.672 70.6976C141.672 70.2309 141.784 69.8482 142.008 69.5496C142.232 69.2416 142.54 69.0129 142.932 68.8636C143.324 68.7049 143.762 68.6256 144.248 68.6256H146.558V68.1216C146.558 67.6362 146.413 67.2536 146.124 66.9736C145.844 66.6936 145.424 66.5536 144.864 66.5536C144.313 66.5536 143.884 66.6889 143.576 66.9596C143.268 67.2209 143.058 67.5756 142.946 68.0236L141.91 67.6876C142.022 67.3049 142.199 66.9596 142.442 66.6516C142.684 66.3342 143.006 66.0822 143.408 65.8956C143.818 65.6996 144.308 65.6016 144.878 65.6016C145.755 65.6016 146.436 65.8302 146.922 66.2876C147.407 66.7356 147.65 67.3702 147.65 68.1916V71.2856C147.65 71.5656 147.78 71.7056 148.042 71.7056H148.672V72.6436H147.706C147.398 72.6436 147.15 72.5596 146.964 72.3916C146.777 72.2142 146.684 71.9809 146.684 71.6916V71.6216H146.516C146.413 71.7989 146.273 71.9856 146.096 72.1816C145.928 72.3682 145.694 72.5222 145.396 72.6436C145.097 72.7742 144.71 72.8396 144.234 72.8396ZM144.36 71.8876C145.013 71.8876 145.54 71.6962 145.942 71.3136C146.352 70.9216 146.558 70.3756 146.558 69.6756V69.5216H144.29C143.851 69.5216 143.487 69.6196 143.198 69.8156C142.918 70.0022 142.778 70.2869 142.778 70.6696C142.778 71.0522 142.922 71.3509 143.212 71.5656C143.51 71.7802 143.893 71.8876 144.36 71.8876ZM150.186 72.6436V65.7976H151.264V66.9596H151.46C151.61 66.6329 151.862 66.3389 152.216 66.0776C152.58 65.8069 153.112 65.6716 153.812 65.6716C154.326 65.6716 154.783 65.7789 155.184 65.9936C155.595 66.2082 155.922 66.5256 156.164 66.9456C156.407 67.3656 156.528 67.8836 156.528 68.4996V72.6436H155.422V68.5836C155.422 67.9022 155.25 67.4076 154.904 67.0996C154.568 66.7916 154.111 66.6376 153.532 66.6376C152.87 66.6376 152.328 66.8522 151.908 67.2816C151.498 67.7109 151.292 68.3502 151.292 69.1996V72.6436H150.186ZM161.67 72.8396C161.082 72.8396 160.541 72.6996 160.046 72.4196C159.552 72.1396 159.16 71.7336 158.87 71.2016C158.581 70.6696 158.436 70.0396 158.436 69.3116V69.1296C158.436 68.4016 158.581 67.7762 158.87 67.2536C159.16 66.7216 159.547 66.3156 160.032 66.0356C160.527 65.7462 161.073 65.6016 161.67 65.6016C162.146 65.6016 162.548 65.6669 162.874 65.7976C163.21 65.9189 163.481 66.0776 163.686 66.2736C163.892 66.4602 164.05 66.6609 164.162 66.8756H164.358V62.8436H165.464V72.6436H164.386V71.5096H164.19C164.004 71.8549 163.714 72.1629 163.322 72.4336C162.93 72.7042 162.38 72.8396 161.67 72.8396ZM161.964 71.8596C162.674 71.8596 163.248 71.6356 163.686 71.1876C164.134 70.7302 164.358 70.0956 164.358 69.2836V69.1576C164.358 68.3456 164.134 67.7156 163.686 67.2676C163.248 66.8102 162.674 66.5816 161.964 66.5816C161.264 66.5816 160.686 66.8102 160.228 67.2676C159.78 67.7156 159.556 68.3456 159.556 69.1576V69.2836C159.556 70.0956 159.78 70.7302 160.228 71.1876C160.686 71.6356 161.264 71.8596 161.964 71.8596ZM171.336 72.6436V62.8436H173.618L177.034 71.9016H177.216V62.8436H178.378V72.6436H176.096L172.694 63.5716H172.498V72.6436H171.336ZM182.775 72.8396C182.299 72.8396 181.865 72.7556 181.473 72.5876C181.081 72.4196 180.773 72.1769 180.549 71.8596C180.325 71.5422 180.213 71.1549 180.213 70.6976C180.213 70.2309 180.325 69.8482 180.549 69.5496C180.773 69.2416 181.081 69.0129 181.473 68.8636C181.865 68.7049 182.303 68.6256 182.789 68.6256H185.099V68.1216C185.099 67.6362 184.954 67.2536 184.665 66.9736C184.385 66.6936 183.965 66.5536 183.405 66.5536C182.854 66.5536 182.425 66.6889 182.117 66.9596C181.809 67.2209 181.599 67.5756 181.487 68.0236L180.451 67.6876C180.563 67.3049 180.74 66.9596 180.983 66.6516C181.225 66.3342 181.547 66.0822 181.949 65.8956C182.359 65.6996 182.849 65.6016 183.419 65.6016C184.296 65.6016 184.977 65.8302 185.463 66.2876C185.948 66.7356 186.191 67.3702 186.191 68.1916V71.2856C186.191 71.5656 186.321 71.7056 186.583 71.7056H187.213V72.6436H186.247C185.939 72.6436 185.691 72.5596 185.505 72.3916C185.318 72.2142 185.225 71.9809 185.225 71.6916V71.6216H185.057C184.954 71.7989 184.814 71.9856 184.637 72.1816C184.469 72.3682 184.235 72.5222 183.937 72.6436C183.638 72.7742 183.251 72.8396 182.775 72.8396ZM182.901 71.8876C183.554 71.8876 184.081 71.6962 184.483 71.3136C184.893 70.9216 185.099 70.3756 185.099 69.6756V69.5216H182.831C182.392 69.5216 182.028 69.6196 181.739 69.8156C181.459 70.0022 181.319 70.2869 181.319 70.6696C181.319 71.0522 181.463 71.3509 181.753 71.5656C182.051 71.7802 182.434 71.8876 182.901 71.8876ZM188.727 72.6436V65.7976H189.805V66.6516H190.001C190.132 66.4089 190.347 66.1849 190.645 65.9796C190.944 65.7742 191.364 65.6716 191.905 65.6716C192.437 65.6716 192.867 65.7882 193.193 66.0216C193.529 66.2549 193.772 66.5396 193.921 66.8756H194.117C194.276 66.5396 194.514 66.2549 194.831 66.0216C195.158 65.7882 195.611 65.6716 196.189 65.6716C196.647 65.6716 197.048 65.7649 197.393 65.9516C197.739 66.1382 198.009 66.4089 198.205 66.7636C198.411 67.1089 198.513 67.5242 198.513 68.0096V72.6436H197.407V68.1076C197.407 67.6502 197.272 67.2909 197.001 67.0296C196.74 66.7589 196.371 66.6236 195.895 66.6236C195.391 66.6236 194.976 66.7869 194.649 67.1136C194.332 67.4402 194.173 67.9116 194.173 68.5276V72.6436H193.067V68.1076C193.067 67.6502 192.932 67.2909 192.661 67.0296C192.4 66.7589 192.031 66.6236 191.555 66.6236C191.051 66.6236 190.636 66.7869 190.309 67.1136C189.992 67.4402 189.833 67.9116 189.833 68.5276V72.6436H188.727ZM203.908 72.8396C203.218 72.8396 202.611 72.6949 202.088 72.4056C201.566 72.1069 201.16 71.6916 200.87 71.1596C200.581 70.6276 200.436 70.0116 200.436 69.3116V69.1436C200.436 68.4342 200.581 67.8136 200.87 67.2816C201.16 66.7496 201.561 66.3389 202.074 66.0496C202.588 65.7509 203.176 65.6016 203.838 65.6016C204.482 65.6016 205.052 65.7416 205.546 66.0216C206.041 66.2922 206.428 66.6842 206.708 67.1976C206.988 67.7109 207.128 68.3129 207.128 69.0036V69.5076H201.542C201.57 70.2449 201.808 70.8236 202.256 71.2436C202.704 71.6542 203.264 71.8596 203.936 71.8596C204.524 71.8596 204.977 71.7242 205.294 71.4536C205.612 71.1829 205.854 70.8609 206.022 70.4876L206.974 70.9496C206.834 71.2389 206.638 71.5282 206.386 71.8176C206.144 72.1069 205.822 72.3496 205.42 72.5456C205.028 72.7416 204.524 72.8396 203.908 72.8396ZM201.556 68.5976H206.008C205.971 67.9629 205.752 67.4682 205.35 67.1136C204.958 66.7589 204.454 66.5816 203.838 66.5816C203.213 66.5816 202.7 66.7589 202.298 67.1136C201.897 67.4682 201.65 67.9629 201.556 68.5976Z" fill="white" fill-opacity="0.76"/>
<path d="M24.5832 127.405C24.9845 127.405 25.3252 127.339 25.6052 127.209C25.8945 127.069 26.1278 126.887 26.3052 126.663C26.4918 126.429 26.6272 126.168 26.7112 125.879C26.8045 125.58 26.8512 125.267 26.8512 124.941V124.773H28.0272V124.941C28.0272 125.435 27.9525 125.902 27.8032 126.341C27.6538 126.77 27.4345 127.148 27.1452 127.475C26.8558 127.792 26.4965 128.044 26.0672 128.231C25.6378 128.408 25.1432 128.497 24.5832 128.497C23.5005 128.497 22.6558 128.156 22.0492 127.475C21.4425 126.793 21.1392 125.799 21.1392 124.493V122.309C21.1392 121.039 21.4425 120.055 22.0492 119.355C22.6558 118.655 23.5005 118.305 24.5832 118.305C25.1432 118.305 25.6378 118.398 26.0672 118.585C26.4965 118.762 26.8558 119.014 27.1452 119.341C27.4345 119.658 27.6538 120.036 27.8032 120.475C27.9525 120.904 28.0272 121.366 28.0272 121.861V122.029H26.8512V121.861C26.8418 121.543 26.7905 121.235 26.6972 120.937C26.6132 120.638 26.4778 120.377 26.2912 120.153C26.1138 119.919 25.8852 119.737 25.6052 119.607C25.3252 119.467 24.9845 119.397 24.5832 119.397C23.8272 119.397 23.2578 119.672 22.8752 120.223C22.5018 120.773 22.3152 121.497 22.3152 122.393V124.409C22.3152 125.37 22.5018 126.112 22.8752 126.635C23.2578 127.148 23.8272 127.405 24.5832 127.405ZM36.5854 124.913C36.5854 125.491 36.4874 126.005 36.2914 126.453C36.1048 126.891 35.8528 127.265 35.5354 127.573C35.2181 127.871 34.8448 128.1 34.4154 128.259C33.9954 128.417 33.5568 128.497 33.0994 128.497C32.6328 128.497 32.1894 128.417 31.7694 128.259C31.3494 128.1 30.9808 127.871 30.6634 127.573C30.3461 127.265 30.0894 126.891 29.8934 126.453C29.7068 126.005 29.6134 125.491 29.6134 124.913V124.745C29.6134 124.175 29.7068 123.671 29.8934 123.233C30.0894 122.785 30.3461 122.407 30.6634 122.099C30.9901 121.791 31.3634 121.557 31.7834 121.399C32.2034 121.24 32.6421 121.161 33.0994 121.161C33.5568 121.161 33.9954 121.24 34.4154 121.399C34.8354 121.557 35.2041 121.791 35.5214 122.099C35.8481 122.407 36.1048 122.785 36.2914 123.233C36.4874 123.671 36.5854 124.175 36.5854 124.745V124.913ZM33.0994 127.461C33.4354 127.461 33.7434 127.405 34.0234 127.293C34.3128 127.171 34.5648 126.999 34.7794 126.775C34.9941 126.551 35.1621 126.285 35.2834 125.977C35.4048 125.659 35.4654 125.305 35.4654 124.913V124.745C35.4654 124.371 35.4048 124.031 35.2834 123.723C35.1621 123.405 34.9941 123.135 34.7794 122.911C34.5648 122.687 34.3128 122.514 34.0234 122.393C33.7341 122.262 33.4261 122.197 33.0994 122.197C32.7728 122.197 32.4648 122.262 32.1754 122.393C31.8861 122.514 31.6341 122.687 31.4194 122.911C31.2048 123.135 31.0368 123.405 30.9154 123.723C30.7941 124.031 30.7334 124.371 30.7334 124.745V124.913C30.7334 125.305 30.7941 125.659 30.9154 125.977C31.0368 126.285 31.2048 126.551 31.4194 126.775C31.6341 126.999 31.8814 127.171 32.1614 127.293C32.4508 127.405 32.7634 127.461 33.0994 127.461ZM38.6057 127.293H41.1257V119.509H38.6897V118.501H42.2177V127.293H44.7377V128.301H38.6057V127.293ZM53.73 124.913C53.73 125.491 53.632 126.005 53.436 126.453C53.2493 126.891 52.9973 127.265 52.68 127.573C52.3626 127.871 51.9893 128.1 51.56 128.259C51.14 128.417 50.7013 128.497 50.244 128.497C49.7773 128.497 49.334 128.417 48.914 128.259C48.494 128.1 48.1253 127.871 47.808 127.573C47.4906 127.265 47.234 126.891 47.038 126.453C46.8513 126.005 46.758 125.491 46.758 124.913V124.745C46.758 124.175 46.8513 123.671 47.038 123.233C47.234 122.785 47.4906 122.407 47.808 122.099C48.1346 121.791 48.508 121.557 48.928 121.399C49.348 121.24 49.7866 121.161 50.244 121.161C50.7013 121.161 51.14 121.24 51.56 121.399C51.98 121.557 52.3486 121.791 52.666 122.099C52.9926 122.407 53.2493 122.785 53.436 123.233C53.632 123.671 53.73 124.175 53.73 124.745V124.913ZM50.244 127.461C50.58 127.461 50.888 127.405 51.168 127.293C51.4573 127.171 51.7093 126.999 51.924 126.775C52.1386 126.551 52.3066 126.285 52.428 125.977C52.5493 125.659 52.61 125.305 52.61 124.913V124.745C52.61 124.371 52.5493 124.031 52.428 123.723C52.3066 123.405 52.1386 123.135 51.924 122.911C51.7093 122.687 51.4573 122.514 51.168 122.393C50.8786 122.262 50.5706 122.197 50.244 122.197C49.9173 122.197 49.6093 122.262 49.32 122.393C49.0306 122.514 48.7786 122.687 48.564 122.911C48.3493 123.135 48.1813 123.405 48.06 123.723C47.9386 124.031 47.878 124.371 47.878 124.745V124.913C47.878 125.305 47.9386 125.659 48.06 125.977C48.1813 126.285 48.3493 126.551 48.564 126.775C48.7786 126.999 49.026 127.171 49.306 127.293C49.5953 127.405 49.908 127.461 50.244 127.461ZM55.3582 121.357H57.8782V122.281H58.0462C58.2236 121.898 58.4756 121.618 58.8022 121.441C59.1289 121.254 59.5022 121.161 59.9222 121.161C60.6222 121.161 61.1869 121.389 61.6162 121.847C62.0456 122.304 62.2742 122.971 62.3022 123.849L61.1542 124.017C61.1542 123.373 61.0002 122.911 60.6922 122.631C60.3842 122.341 60.0062 122.197 59.5582 122.197C59.2689 122.197 59.0169 122.253 58.8022 122.365C58.5969 122.477 58.4242 122.631 58.2842 122.827C58.1442 123.023 58.0416 123.251 57.9762 123.513C57.9109 123.774 57.8782 124.054 57.8782 124.353V127.293H59.6422V128.301H55.1902V127.293H56.7862V122.365H55.3582V121.357ZM74.0428 124.269V128.301H72.8668V118.501H76.3668C76.8708 118.501 77.3094 118.575 77.6828 118.725C78.0561 118.865 78.3641 119.056 78.6068 119.299C78.8588 119.541 79.0454 119.826 79.1668 120.153C79.2974 120.47 79.3628 120.806 79.3628 121.161V121.581C79.3628 121.935 79.2974 122.276 79.1668 122.603C79.0454 122.929 78.8588 123.219 78.6068 123.471C78.3548 123.713 78.0421 123.909 77.6688 124.059C77.2954 124.199 76.8614 124.269 76.3668 124.269H74.0428ZM74.0428 123.177H76.2268C77.5334 123.177 78.1868 122.617 78.1868 121.497V121.245C78.1868 120.75 78.0234 120.353 77.6968 120.055C77.3794 119.747 76.8894 119.593 76.2268 119.593H74.0428V123.177ZM86.507 127.125H86.339C86.115 127.591 85.8024 127.937 85.401 128.161C85.009 128.385 84.5937 128.497 84.155 128.497C83.6977 128.497 83.273 128.422 82.881 128.273C82.489 128.114 82.1437 127.885 81.845 127.587C81.5557 127.279 81.327 126.905 81.159 126.467C80.991 126.028 80.907 125.519 80.907 124.941V124.717C80.907 124.147 80.991 123.643 81.159 123.205C81.327 122.766 81.5557 122.397 81.845 122.099C82.1437 121.791 82.489 121.557 82.881 121.399C83.273 121.24 83.6884 121.161 84.127 121.161C84.603 121.161 85.0324 121.268 85.415 121.483C85.807 121.688 86.115 122.01 86.339 122.449H86.507V121.357H87.599V126.873C87.599 127.153 87.725 127.293 87.977 127.293H88.327V128.301H87.585C87.2677 128.301 87.0064 128.198 86.801 127.993C86.605 127.787 86.507 127.526 86.507 127.209V127.125ZM84.267 127.461C84.5937 127.461 84.8924 127.4 85.163 127.279C85.443 127.157 85.681 126.985 85.877 126.761C86.073 126.537 86.227 126.271 86.339 125.963C86.451 125.645 86.507 125.295 86.507 124.913V124.745C86.507 124.371 86.451 124.031 86.339 123.723C86.227 123.405 86.0684 123.135 85.863 122.911C85.667 122.687 85.429 122.514 85.149 122.393C84.8784 122.262 84.5844 122.197 84.267 122.197C83.9404 122.197 83.6417 122.257 83.371 122.379C83.1004 122.5 82.8624 122.673 82.657 122.897C82.461 123.111 82.307 123.377 82.195 123.695C82.083 124.003 82.027 124.343 82.027 124.717V124.941C82.027 125.734 82.2324 126.355 82.643 126.803C83.063 127.241 83.6044 127.461 84.267 127.461ZM90.0393 127.293H92.5593V119.509H90.1233V118.501H93.6513V127.293H96.1713V128.301H90.0393V127.293ZM98.6116 127.293H101.132V119.509H98.6956V118.501H102.224V127.293H104.744V128.301H98.6116V127.293ZM107.982 125.165C108.01 125.855 108.224 126.411 108.626 126.831C109.027 127.251 109.587 127.461 110.306 127.461C110.632 127.461 110.917 127.423 111.16 127.349C111.402 127.274 111.608 127.171 111.776 127.041C111.953 126.91 112.093 126.761 112.196 126.593C112.308 126.415 112.396 126.229 112.462 126.033L113.498 126.313C113.302 126.957 112.938 127.484 112.406 127.895C111.883 128.296 111.174 128.497 110.278 128.497C109.783 128.497 109.326 128.413 108.906 128.245C108.495 128.067 108.14 127.82 107.842 127.503C107.543 127.185 107.31 126.807 107.142 126.369C106.974 125.93 106.89 125.445 106.89 124.913V124.577C106.89 124.091 106.974 123.639 107.142 123.219C107.319 122.799 107.562 122.439 107.87 122.141C108.178 121.833 108.537 121.595 108.948 121.427C109.368 121.249 109.82 121.161 110.306 121.161C110.875 121.161 111.365 121.268 111.776 121.483C112.196 121.688 112.536 121.945 112.798 122.253C113.068 122.561 113.264 122.897 113.386 123.261C113.516 123.625 113.582 123.961 113.582 124.269V125.165H107.982ZM110.306 122.197C109.998 122.197 109.708 122.248 109.438 122.351C109.176 122.444 108.943 122.579 108.738 122.757C108.542 122.934 108.378 123.144 108.248 123.387C108.126 123.62 108.047 123.877 108.01 124.157H112.49C112.471 123.858 112.396 123.587 112.266 123.345C112.144 123.102 111.981 122.897 111.776 122.729C111.58 122.561 111.351 122.43 111.09 122.337C110.838 122.243 110.576 122.197 110.306 122.197ZM115.518 121.357H117.702V118.501H118.794V121.357H121.482V122.365H118.794V126.873C118.794 127.153 118.92 127.293 119.172 127.293H121.146V128.301H118.78C118.463 128.301 118.201 128.198 117.996 127.993C117.8 127.787 117.702 127.526 117.702 127.209V122.365H115.518V121.357ZM125.126 125.165C125.154 125.855 125.369 126.411 125.77 126.831C126.172 127.251 126.732 127.461 127.45 127.461C127.777 127.461 128.062 127.423 128.304 127.349C128.547 127.274 128.752 127.171 128.92 127.041C129.098 126.91 129.238 126.761 129.34 126.593C129.452 126.415 129.541 126.229 129.606 126.033L130.642 126.313C130.446 126.957 130.082 127.484 129.55 127.895C129.028 128.296 128.318 128.497 127.422 128.497C126.928 128.497 126.47 128.413 126.05 128.245C125.64 128.067 125.285 127.82 124.986 127.503C124.688 127.185 124.454 126.807 124.286 126.369C124.118 125.93 124.034 125.445 124.034 124.913V124.577C124.034 124.091 124.118 123.639 124.286 123.219C124.464 122.799 124.706 122.439 125.014 122.141C125.322 121.833 125.682 121.595 126.092 121.427C126.512 121.249 126.965 121.161 127.45 121.161C128.02 121.161 128.51 121.268 128.92 121.483C129.34 121.688 129.681 121.945 129.942 122.253C130.213 122.561 130.409 122.897 130.53 123.261C130.661 123.625 130.726 123.961 130.726 124.269V125.165H125.126ZM127.45 122.197C127.142 122.197 126.853 122.248 126.582 122.351C126.321 122.444 126.088 122.579 125.882 122.757C125.686 122.934 125.523 123.144 125.392 123.387C125.271 123.62 125.192 123.877 125.154 124.157H129.634C129.616 123.858 129.541 123.587 129.41 123.345C129.289 123.102 129.126 122.897 128.92 122.729C128.724 122.561 128.496 122.43 128.234 122.337C127.982 122.243 127.721 122.197 127.45 122.197Z" fill="#D7D7D7"/>
<rect x="20.2432" y="141.301" width="64" height="64" rx="12" fill="#780000"/>
<rect x="20.7432" y="141.801" width="63" height="63" rx="11.5" stroke="white" stroke-opacity="0.08"/>
<rect x="88.2432" y="141.301" width="64" height="64" rx="12" fill="#C1121F"/>
<rect x="88.7432" y="141.801" width="63" height="63" rx="11.5" stroke="white" stroke-opacity="0.08"/>
<rect x="156.243" y="141.301" width="30" height="31" rx="8" fill="#FDF0D5"/>
<rect x="156.743" y="141.801" width="29" height="30" rx="7.5" stroke="white" stroke-opacity="0.08"/>
<rect x="188.243" y="141.301" width="30" height="31" rx="8" fill="#003049"/>
<rect x="188.743" y="141.801" width="29" height="30" rx="7.5" stroke="white" stroke-opacity="0.08"/>
<rect x="156.243" y="174.301" width="30" height="31" rx="8" fill="#669BBC"/>
<rect x="156.743" y="174.801" width="29" height="30" rx="7.5" stroke="white" stroke-opacity="0.08"/>
<rect x="188.243" y="174.301" width="30" height="31" rx="8" fill="#0C0C0C"/>
<rect x="188.243" y="174.301" width="30" height="31" rx="8" fill="white" fill-opacity="0.04"/>
<rect x="188.743" y="174.801" width="29" height="30" rx="7.5" stroke="white" stroke-opacity="0.08"/>
<path d="M203.243 184.801V194.801M208.243 189.801L198.243 189.801" stroke="white" stroke-opacity="0.48" stroke-width="1.5" stroke-linecap="round" stroke-linejoin="round"/>
<path d="M237.573 118.501H243.593V119.593H238.749V122.841H243.509V123.933H238.749V128.301H237.573V118.501ZM252.585 124.913C252.585 125.491 252.487 126.005 252.291 126.453C252.105 126.891 251.853 127.265 251.535 127.573C251.218 127.871 250.845 128.1 250.415 128.259C249.995 128.417 249.557 128.497 249.099 128.497C248.633 128.497 248.189 128.417 247.769 128.259C247.349 128.1 246.981 127.871 246.663 127.573C246.346 127.265 246.089 126.891 245.893 126.453C245.707 126.005 245.613 125.491 245.613 124.913V124.745C245.613 124.175 245.707 123.671 245.893 123.233C246.089 122.785 246.346 122.407 246.663 122.099C246.99 121.791 247.363 121.557 247.783 121.399C248.203 121.24 248.642 121.161 249.099 121.161C249.557 121.161 249.995 121.24 250.415 121.399C250.835 121.557 251.204 121.791 251.521 122.099C251.848 122.407 252.105 122.785 252.291 123.233C252.487 123.671 252.585 124.175 252.585 124.745V124.913ZM249.099 127.461C249.435 127.461 249.743 127.405 250.023 127.293C250.313 127.171 250.565 126.999 250.779 126.775C250.994 126.551 251.162 126.285 251.283 125.977C251.405 125.659 251.465 125.305 251.465 124.913V124.745C251.465 124.371 251.405 124.031 251.283 123.723C251.162 123.405 250.994 123.135 250.779 122.911C250.565 122.687 250.313 122.514 250.023 122.393C249.734 122.262 249.426 122.197 249.099 122.197C248.773 122.197 248.465 122.262 248.175 122.393C247.886 122.514 247.634 122.687 247.419 122.911C247.205 123.135 247.037 123.405 246.915 123.723C246.794 124.031 246.733 124.371 246.733 124.745V124.913C246.733 125.305 246.794 125.659 246.915 125.977C247.037 126.285 247.205 126.551 247.419 126.775C247.634 126.999 247.881 127.171 248.161 127.293C248.451 127.405 248.763 127.461 249.099 127.461ZM255.698 128.301H254.606V121.357H255.698V122.533H255.866C256.295 121.618 257.042 121.161 258.106 121.161C258.908 121.161 259.548 121.413 260.024 121.917C260.5 122.411 260.738 123.158 260.738 124.157V128.301H259.646V124.381C259.646 123.653 259.482 123.107 259.156 122.743C258.829 122.379 258.386 122.197 257.826 122.197C257.163 122.197 256.64 122.425 256.258 122.883C255.884 123.331 255.698 123.933 255.698 124.689V128.301ZM262.94 121.357H265.124V118.501H266.216V121.357H268.904V122.365H266.216V126.873C266.216 127.153 266.342 127.293 266.594 127.293H268.568V128.301H266.202C265.885 128.301 265.623 128.198 265.418 127.993C265.222 127.787 265.124 127.526 265.124 127.209V122.365H262.94V121.357ZM273.192 123.149C273.192 123.485 273.332 123.741 273.612 123.919C273.902 124.096 274.424 124.213 275.18 124.269C275.992 124.334 276.608 124.53 277.028 124.857C277.458 125.174 277.672 125.641 277.672 126.257V126.341C277.672 126.677 277.602 126.98 277.462 127.251C277.332 127.512 277.145 127.736 276.902 127.923C276.669 128.109 276.38 128.249 276.034 128.343C275.698 128.445 275.33 128.497 274.928 128.497C274.387 128.497 273.92 128.427 273.528 128.287C273.146 128.137 272.824 127.946 272.562 127.713C272.31 127.47 272.119 127.199 271.988 126.901C271.858 126.593 271.783 126.285 271.764 125.977L272.8 125.725C272.847 126.257 273.052 126.686 273.416 127.013C273.78 127.33 274.266 127.489 274.872 127.489C275.386 127.489 275.796 127.391 276.104 127.195C276.422 126.989 276.58 126.705 276.58 126.341C276.58 125.949 276.426 125.669 276.118 125.501C275.81 125.333 275.311 125.225 274.62 125.179C273.818 125.123 273.202 124.936 272.772 124.619C272.343 124.301 272.128 123.839 272.128 123.233V123.149C272.128 122.822 272.198 122.537 272.338 122.295C272.478 122.043 272.665 121.833 272.898 121.665C273.141 121.497 273.412 121.371 273.71 121.287C274.009 121.203 274.322 121.161 274.648 121.161C275.106 121.161 275.507 121.226 275.852 121.357C276.198 121.478 276.487 121.641 276.72 121.847C276.954 122.043 277.131 122.271 277.252 122.533C277.383 122.794 277.467 123.055 277.504 123.317L276.468 123.569C276.422 123.121 276.24 122.771 275.922 122.519C275.614 122.267 275.208 122.141 274.704 122.141C274.508 122.141 274.317 122.164 274.13 122.211C273.953 122.248 273.794 122.309 273.654 122.393C273.514 122.477 273.402 122.584 273.318 122.715C273.234 122.836 273.192 122.981 273.192 123.149Z" fill="#D7D7D7"/>
<rect x="236.243" y="141.301" width="64" height="64" rx="12" fill="#0C0C0C"/>
<rect x="236.243" y="141.301" width="64" height="64" rx="12" fill="white" fill-opacity="0.04"/>
<rect x="236.743" y="141.801" width="63" height="63" rx="11.5" stroke="white" stroke-opacity="0.08"/>
<path d="M258.833 180.301H255.538L260.559 165.755H264.522L269.536 180.301H266.241L262.597 169.079H262.484L258.833 180.301ZM258.627 174.583H266.411V176.984H258.627V174.583ZM274.141 180.507C273.445 180.507 272.825 180.386 272.28 180.145C271.736 179.898 271.305 179.536 270.988 179.058C270.675 178.575 270.519 177.974 270.519 177.254C270.519 176.648 270.63 176.139 270.853 175.727C271.075 175.315 271.378 174.984 271.762 174.733C272.145 174.482 272.581 174.292 273.069 174.164C273.561 174.037 274.077 173.947 274.617 173.895C275.251 173.828 275.763 173.767 276.151 173.71C276.539 173.648 276.821 173.558 276.996 173.44C277.171 173.322 277.259 173.146 277.259 172.914V172.872C277.259 172.422 277.117 172.074 276.833 171.828C276.553 171.582 276.156 171.458 275.64 171.458C275.095 171.458 274.662 171.579 274.34 171.821C274.018 172.057 273.805 172.356 273.701 172.716L270.902 172.488C271.044 171.825 271.324 171.252 271.74 170.77C272.157 170.282 272.695 169.908 273.353 169.647C274.016 169.382 274.783 169.25 275.654 169.25C276.26 169.25 276.84 169.321 277.394 169.463C277.953 169.605 278.447 169.825 278.878 170.123C279.314 170.422 279.657 170.805 279.908 171.274C280.159 171.738 280.284 172.294 280.284 172.943V180.301H277.415V178.788H277.33C277.155 179.129 276.92 179.43 276.627 179.69C276.333 179.946 275.981 180.147 275.569 180.294C275.157 180.436 274.681 180.507 274.141 180.507ZM275.008 178.419C275.453 178.419 275.846 178.331 276.186 178.156C276.527 177.976 276.795 177.734 276.989 177.431C277.183 177.128 277.28 176.785 277.28 176.402V175.244C277.186 175.306 277.055 175.362 276.89 175.414C276.729 175.462 276.546 175.507 276.343 175.549C276.139 175.587 275.936 175.623 275.732 175.656C275.528 175.684 275.344 175.71 275.178 175.734C274.823 175.786 274.513 175.869 274.248 175.983C273.982 176.096 273.776 176.25 273.63 176.444C273.483 176.634 273.409 176.87 273.409 177.154C273.409 177.566 273.559 177.881 273.857 178.099C274.16 178.312 274.543 178.419 275.008 178.419Z" fill="white"/>
<rect x="304.243" y="141.301" width="64" height="64" rx="12" fill="#0C0C0C"/>
<rect x="304.243" y="141.301" width="64" height="64" rx="12" fill="white" fill-opacity="0.04"/>
<rect x="304.743" y="141.801" width="63" height="63" rx="11.5" stroke="white" stroke-opacity="0.08"/>
<path d="M325.972 180.301C325.812 180.301 325.732 180.234 325.732 180.101C325.732 179.981 325.839 179.894 326.052 179.841L326.372 179.781C326.639 179.727 326.872 179.601 327.072 179.401C327.259 179.187 327.439 178.894 327.612 178.521L333.592 166.021C333.659 165.887 333.726 165.801 333.792 165.761C333.859 165.721 333.919 165.701 333.972 165.701C334.039 165.701 334.092 165.721 334.132 165.761C334.186 165.801 334.212 165.887 334.212 166.021L334.432 178.701C334.446 179.074 334.492 179.334 334.572 179.481C334.652 179.614 334.819 179.714 335.072 179.781L335.332 179.841C335.492 179.881 335.572 179.961 335.572 180.081C335.572 180.227 335.459 180.301 335.232 180.301H331.932C331.759 180.301 331.672 180.234 331.672 180.101C331.672 179.954 331.806 179.867 332.072 179.841L332.472 179.801C332.699 179.774 332.852 179.701 332.932 179.581C333.026 179.461 333.072 179.254 333.072 178.961L333.032 175.861C333.032 175.514 332.852 175.341 332.492 175.341H330.352C330.006 175.341 329.746 175.514 329.572 175.861L328.272 178.541C327.912 179.301 328.032 179.721 328.632 179.801L328.912 179.841C329.112 179.867 329.212 179.947 329.212 180.081C329.212 180.227 329.099 180.301 328.872 180.301H325.972ZM330.432 174.741H332.672C332.899 174.741 333.012 174.627 333.012 174.401L332.972 168.941H332.872L330.252 174.401C330.199 174.494 330.192 174.574 330.232 174.641C330.272 174.707 330.339 174.741 330.432 174.741ZM337.581 180.481C337.101 180.481 336.728 180.274 336.461 179.861C336.195 179.447 336.061 178.841 336.061 178.041C336.061 177.281 336.168 176.521 336.381 175.761C336.595 174.987 336.888 174.254 337.261 173.561C337.635 172.867 338.055 172.254 338.521 171.721C339.001 171.187 339.501 170.767 340.021 170.461C340.555 170.141 341.081 169.981 341.601 169.981C341.855 169.981 342.095 170.034 342.321 170.141C342.548 170.234 342.735 170.387 342.881 170.601C342.961 170.721 343.041 170.781 343.121 170.781C343.201 170.781 343.281 170.721 343.361 170.601C343.508 170.387 343.628 170.254 343.721 170.201C343.815 170.134 343.901 170.101 343.981 170.101C344.155 170.101 344.221 170.194 344.181 170.381L342.401 178.041C342.201 178.907 342.335 179.341 342.801 179.341C343.108 179.341 343.381 179.134 343.621 178.721C343.875 178.307 344.128 177.667 344.381 176.801C344.421 176.654 344.508 176.581 344.641 176.581C344.735 176.581 344.795 176.621 344.821 176.701C344.848 176.781 344.848 176.874 344.821 176.981C344.568 178.234 344.228 179.134 343.801 179.681C343.375 180.214 342.861 180.481 342.261 180.481C341.741 180.481 341.368 180.261 341.141 179.821C340.928 179.381 340.908 178.781 341.081 178.021L341.341 176.921C341.368 176.827 341.348 176.774 341.281 176.761C341.228 176.747 341.181 176.781 341.141 176.861C340.408 178.207 339.755 179.147 339.181 179.681C338.621 180.214 338.088 180.481 337.581 180.481ZM338.081 179.461C338.401 179.461 338.755 179.267 339.141 178.881C339.528 178.494 339.908 177.994 340.281 177.381C340.668 176.767 341.021 176.107 341.341 175.401C341.661 174.694 341.915 174.014 342.101 173.361C342.301 172.707 342.401 172.154 342.401 171.701C342.401 170.887 342.115 170.481 341.541 170.481C341.195 170.481 340.828 170.641 340.441 170.961C340.055 171.267 339.681 171.687 339.321 172.221C338.975 172.754 338.655 173.361 338.361 174.041C338.081 174.707 337.855 175.407 337.681 176.141C337.508 176.861 337.421 177.567 337.421 178.261C337.421 178.727 337.475 179.047 337.581 179.221C337.701 179.381 337.868 179.461 338.081 179.461Z" fill="white"/>
<rect x="372.243" y="141.301" width="64" height="64" rx="12" fill="#0C0C0C"/>
<rect x="372.243" y="141.301" width="64" height="64" rx="12" fill="white" fill-opacity="0.04"/>
<rect x="372.743" y="141.801" width="63" height="63" rx="11.5" stroke="white" stroke-opacity="0.08"/>
<path d="M404.243 166.634V179.967M410.91 173.3L397.577 173.3" stroke="white" stroke-opacity="0.48" stroke-width="2" stroke-linecap="round" stroke-linejoin="round"/>
<path d="M453.083 118.501H459.971V119.593H457.115V128.301H455.939V119.593H453.083V118.501ZM468.585 124.913C468.585 125.491 468.487 126.005 468.291 126.453C468.105 126.891 467.853 127.265 467.535 127.573C467.218 127.871 466.845 128.1 466.415 128.259C465.995 128.417 465.557 128.497 465.099 128.497C464.633 128.497 464.189 128.417 463.769 128.259C463.349 128.1 462.981 127.871 462.663 127.573C462.346 127.265 462.089 126.891 461.893 126.453C461.707 126.005 461.613 125.491 461.613 124.913V124.745C461.613 124.175 461.707 123.671 461.893 123.233C462.089 122.785 462.346 122.407 462.663 122.099C462.99 121.791 463.363 121.557 463.783 121.399C464.203 121.24 464.642 121.161 465.099 121.161C465.557 121.161 465.995 121.24 466.415 121.399C466.835 121.557 467.204 121.791 467.521 122.099C467.848 122.407 468.105 122.785 468.291 123.233C468.487 123.671 468.585 124.175 468.585 124.745V124.913ZM465.099 127.461C465.435 127.461 465.743 127.405 466.023 127.293C466.313 127.171 466.565 126.999 466.779 126.775C466.994 126.551 467.162 126.285 467.283 125.977C467.405 125.659 467.465 125.305 467.465 124.913V124.745C467.465 124.371 467.405 124.031 467.283 123.723C467.162 123.405 466.994 123.135 466.779 122.911C466.565 122.687 466.313 122.514 466.023 122.393C465.734 122.262 465.426 122.197 465.099 122.197C464.773 122.197 464.465 122.262 464.175 122.393C463.886 122.514 463.634 122.687 463.419 122.911C463.205 123.135 463.037 123.405 462.915 123.723C462.794 124.031 462.733 124.371 462.733 124.745V124.913C462.733 125.305 462.794 125.659 462.915 125.977C463.037 126.285 463.205 126.551 463.419 126.775C463.634 126.999 463.881 127.171 464.161 127.293C464.451 127.405 464.763 127.461 465.099 127.461ZM471.698 128.301H470.606V121.357H471.698V122.533H471.866C472.295 121.618 473.042 121.161 474.106 121.161C474.908 121.161 475.548 121.413 476.024 121.917C476.5 122.411 476.738 123.158 476.738 124.157V128.301H475.646V124.381C475.646 123.653 475.482 123.107 475.156 122.743C474.829 122.379 474.386 122.197 473.826 122.197C473.163 122.197 472.64 122.425 472.258 122.883C471.884 123.331 471.698 123.933 471.698 124.689V128.301ZM479.976 125.165C480.004 125.855 480.219 126.411 480.62 126.831C481.021 127.251 481.581 127.461 482.3 127.461C482.627 127.461 482.911 127.423 483.154 127.349C483.397 127.274 483.602 127.171 483.77 127.041C483.947 126.91 484.087 126.761 484.19 126.593C484.302 126.415 484.391 126.229 484.456 126.033L485.492 126.313C485.296 126.957 484.932 127.484 484.4 127.895C483.877 128.296 483.168 128.497 482.272 128.497C481.777 128.497 481.32 128.413 480.9 128.245C480.489 128.067 480.135 127.82 479.836 127.503C479.537 127.185 479.304 126.807 479.136 126.369C478.968 125.93 478.884 125.445 478.884 124.913V124.577C478.884 124.091 478.968 123.639 479.136 123.219C479.313 122.799 479.556 122.439 479.864 122.141C480.172 121.833 480.531 121.595 480.942 121.427C481.362 121.249 481.815 121.161 482.3 121.161C482.869 121.161 483.359 121.268 483.77 121.483C484.19 121.688 484.531 121.945 484.792 122.253C485.063 122.561 485.259 122.897 485.38 123.261C485.511 123.625 485.576 123.961 485.576 124.269V125.165H479.976ZM482.3 122.197C481.992 122.197 481.703 122.248 481.432 122.351C481.171 122.444 480.937 122.579 480.732 122.757C480.536 122.934 480.373 123.144 480.242 123.387C480.121 123.62 480.041 123.877 480.004 124.157H484.484C484.465 123.858 484.391 123.587 484.26 123.345C484.139 123.102 483.975 122.897 483.77 122.729C483.574 122.561 483.345 122.43 483.084 122.337C482.832 122.243 482.571 122.197 482.3 122.197ZM502.874 124.913C502.874 125.491 502.776 126.005 502.58 126.453C502.394 126.891 502.142 127.265 501.824 127.573C501.507 127.871 501.134 128.1 500.704 128.259C500.284 128.417 499.846 128.497 499.388 128.497C498.922 128.497 498.478 128.417 498.058 128.259C497.638 128.1 497.27 127.871 496.952 127.573C496.635 127.265 496.378 126.891 496.182 126.453C495.996 126.005 495.902 125.491 495.902 124.913V124.745C495.902 124.175 495.996 123.671 496.182 123.233C496.378 122.785 496.635 122.407 496.952 122.099C497.279 121.791 497.652 121.557 498.072 121.399C498.492 121.24 498.931 121.161 499.388 121.161C499.846 121.161 500.284 121.24 500.704 121.399C501.124 121.557 501.493 121.791 501.81 122.099C502.137 122.407 502.394 122.785 502.58 123.233C502.776 123.671 502.874 124.175 502.874 124.745V124.913ZM499.388 127.461C499.724 127.461 500.032 127.405 500.312 127.293C500.602 127.171 500.854 126.999 501.068 126.775C501.283 126.551 501.451 126.285 501.572 125.977C501.694 125.659 501.754 125.305 501.754 124.913V124.745C501.754 124.371 501.694 124.031 501.572 123.723C501.451 123.405 501.283 123.135 501.068 122.911C500.854 122.687 500.602 122.514 500.312 122.393C500.023 122.262 499.715 122.197 499.388 122.197C499.062 122.197 498.754 122.262 498.464 122.393C498.175 122.514 497.923 122.687 497.708 122.911C497.494 123.135 497.326 123.405 497.204 123.723C497.083 124.031 497.022 124.371 497.022 124.745V124.913C497.022 125.305 497.083 125.659 497.204 125.977C497.326 126.285 497.494 126.551 497.708 126.775C497.923 126.999 498.17 127.171 498.45 127.293C498.74 127.405 499.052 127.461 499.388 127.461ZM504.825 121.357H506.967V119.593C506.967 119.275 507.065 119.014 507.261 118.809C507.466 118.603 507.727 118.501 508.045 118.501H510.789V119.509H508.437C508.185 119.509 508.059 119.649 508.059 119.929V121.357H510.957V122.365H508.059V128.301H506.967V122.365H504.825V121.357ZM521.199 118.501H522.459L525.021 127.797H525.189L527.751 118.501H529.011L526.239 128.301H523.971L521.199 118.501ZM537.164 124.913C537.164 125.491 537.066 126.005 536.87 126.453C536.683 126.891 536.431 127.265 536.114 127.573C535.796 127.871 535.423 128.1 534.994 128.259C534.574 128.417 534.135 128.497 533.678 128.497C533.211 128.497 532.768 128.417 532.348 128.259C531.928 128.1 531.559 127.871 531.242 127.573C530.924 127.265 530.668 126.891 530.472 126.453C530.285 126.005 530.192 125.491 530.192 124.913V124.745C530.192 124.175 530.285 123.671 530.472 123.233C530.668 122.785 530.924 122.407 531.242 122.099C531.568 121.791 531.942 121.557 532.362 121.399C532.782 121.24 533.22 121.161 533.678 121.161C534.135 121.161 534.574 121.24 534.994 121.399C535.414 121.557 535.782 121.791 536.1 122.099C536.426 122.407 536.683 122.785 536.87 123.233C537.066 123.671 537.164 124.175 537.164 124.745V124.913ZM533.678 127.461C534.014 127.461 534.322 127.405 534.602 127.293C534.891 127.171 535.143 126.999 535.358 126.775C535.572 126.551 535.74 126.285 535.862 125.977C535.983 125.659 536.044 125.305 536.044 124.913V124.745C536.044 124.371 535.983 124.031 535.862 123.723C535.74 123.405 535.572 123.135 535.358 122.911C535.143 122.687 534.891 122.514 534.602 122.393C534.312 122.262 534.004 122.197 533.678 122.197C533.351 122.197 533.043 122.262 532.754 122.393C532.464 122.514 532.212 122.687 531.998 122.911C531.783 123.135 531.615 123.405 531.494 123.723C531.372 124.031 531.312 124.371 531.312 124.745V124.913C531.312 125.305 531.372 125.659 531.494 125.977C531.615 126.285 531.783 126.551 531.998 126.775C532.212 126.999 532.46 127.171 532.74 127.293C533.029 127.405 533.342 127.461 533.678 127.461ZM541.34 119.285C541.34 119.014 541.433 118.785 541.62 118.599C541.816 118.403 542.049 118.305 542.32 118.305C542.59 118.305 542.819 118.403 543.006 118.599C543.202 118.785 543.3 119.014 543.3 119.285C543.3 119.555 543.202 119.789 543.006 119.985C542.819 120.171 542.59 120.265 542.32 120.265C542.049 120.265 541.816 120.171 541.62 119.985C541.433 119.789 541.34 119.555 541.34 119.285ZM539.352 127.293H541.788V122.365H539.604V121.357H542.88V127.293H545.148V128.301H539.352V127.293ZM554.252 125.837C554.177 126.219 554.047 126.574 553.86 126.901C553.683 127.227 553.454 127.512 553.174 127.755C552.894 127.988 552.567 128.17 552.194 128.301C551.821 128.431 551.405 128.497 550.948 128.497C550.463 128.497 550.001 128.417 549.562 128.259C549.133 128.1 548.755 127.871 548.428 127.573C548.101 127.265 547.84 126.891 547.644 126.453C547.457 126.014 547.364 125.51 547.364 124.941V124.773C547.364 124.213 547.457 123.709 547.644 123.261C547.84 122.813 548.101 122.435 548.428 122.127C548.755 121.819 549.133 121.581 549.562 121.413C550.001 121.245 550.463 121.161 550.948 121.161C551.387 121.161 551.793 121.226 552.166 121.357C552.539 121.487 552.866 121.674 553.146 121.917C553.435 122.15 553.669 122.43 553.846 122.757C554.033 123.083 554.159 123.438 554.224 123.821L553.132 124.073C553.104 123.83 553.034 123.597 552.922 123.373C552.819 123.139 552.675 122.939 552.488 122.771C552.311 122.593 552.091 122.453 551.83 122.351C551.569 122.248 551.265 122.197 550.92 122.197C550.584 122.197 550.267 122.262 549.968 122.393C549.679 122.514 549.422 122.691 549.198 122.925C548.974 123.149 548.797 123.419 548.666 123.737C548.545 124.054 548.484 124.399 548.484 124.773V124.941C548.484 125.333 548.545 125.687 548.666 126.005C548.797 126.313 548.974 126.574 549.198 126.789C549.422 127.003 549.683 127.171 549.982 127.293C550.281 127.405 550.603 127.461 550.948 127.461C551.293 127.461 551.592 127.409 551.844 127.307C552.105 127.195 552.325 127.055 552.502 126.887C552.689 126.709 552.833 126.509 552.936 126.285C553.048 126.061 553.123 125.827 553.16 125.585L554.252 125.837ZM557.126 125.165C557.154 125.855 557.369 126.411 557.77 126.831C558.172 127.251 558.732 127.461 559.45 127.461C559.777 127.461 560.062 127.423 560.304 127.349C560.547 127.274 560.752 127.171 560.92 127.041C561.098 126.91 561.238 126.761 561.34 126.593C561.452 126.415 561.541 126.229 561.606 126.033L562.642 126.313C562.446 126.957 562.082 127.484 561.55 127.895C561.028 128.296 560.318 128.497 559.422 128.497C558.928 128.497 558.47 128.413 558.05 128.245C557.64 128.067 557.285 127.82 556.986 127.503C556.688 127.185 556.454 126.807 556.286 126.369C556.118 125.93 556.034 125.445 556.034 124.913V124.577C556.034 124.091 556.118 123.639 556.286 123.219C556.464 122.799 556.706 122.439 557.014 122.141C557.322 121.833 557.682 121.595 558.092 121.427C558.512 121.249 558.965 121.161 559.45 121.161C560.02 121.161 560.51 121.268 560.92 121.483C561.34 121.688 561.681 121.945 561.942 122.253C562.213 122.561 562.409 122.897 562.53 123.261C562.661 123.625 562.726 123.961 562.726 124.269V125.165H557.126ZM559.45 122.197C559.142 122.197 558.853 122.248 558.582 122.351C558.321 122.444 558.088 122.579 557.882 122.757C557.686 122.934 557.523 123.144 557.392 123.387C557.271 123.62 557.192 123.877 557.154 124.157H561.634C561.616 123.858 561.541 123.587 561.41 123.345C561.289 123.102 561.126 122.897 560.92 122.729C560.724 122.561 560.496 122.43 560.234 122.337C559.982 122.243 559.721 122.197 559.45 122.197Z" fill="#D7D7D7"/>
<rect x="452.743" y="141.801" width="110" height="27" rx="7.5" stroke="white" stroke-opacity="0.08"/>
<path d="M466.813 153.445C466.77 153.042 466.589 152.728 466.269 152.504C465.952 152.279 465.539 152.167 465.031 152.167C464.674 152.167 464.368 152.22 464.113 152.328C463.857 152.436 463.662 152.582 463.526 152.767C463.391 152.951 463.322 153.162 463.319 153.399C463.319 153.596 463.363 153.767 463.453 153.912C463.545 154.056 463.67 154.179 463.826 154.281C463.983 154.379 464.157 154.462 464.348 154.53C464.539 154.598 464.731 154.655 464.925 154.701L465.812 154.923C466.169 155.006 466.512 155.118 466.841 155.26C467.173 155.401 467.47 155.58 467.732 155.795C467.997 156.011 468.206 156.271 468.36 156.575C468.514 156.88 468.591 157.237 468.591 157.646C468.591 158.2 468.449 158.688 468.166 159.11C467.883 159.528 467.473 159.856 466.938 160.093C466.406 160.327 465.761 160.444 465.004 160.444C464.268 160.444 463.63 160.33 463.088 160.102C462.549 159.875 462.128 159.542 461.823 159.105C461.521 158.668 461.358 158.136 461.334 157.508H463.019C463.043 157.837 463.145 158.111 463.323 158.33C463.502 158.548 463.734 158.711 464.02 158.819C464.31 158.927 464.633 158.98 464.99 158.98C465.362 158.98 465.688 158.925 465.969 158.814C466.252 158.7 466.473 158.543 466.633 158.343C466.793 158.14 466.875 157.903 466.878 157.632C466.875 157.386 466.803 157.183 466.661 157.023C466.519 156.86 466.321 156.725 466.065 156.617C465.813 156.506 465.518 156.408 465.179 156.321L464.103 156.044C463.325 155.844 462.709 155.541 462.257 155.135C461.808 154.726 461.583 154.182 461.583 153.505C461.583 152.948 461.734 152.46 462.035 152.042C462.34 151.623 462.754 151.299 463.277 151.068C463.8 150.834 464.393 150.717 465.054 150.717C465.725 150.717 466.313 150.834 466.818 151.068C467.326 151.299 467.724 151.62 468.014 152.033C468.303 152.442 468.452 152.913 468.461 153.445H466.813ZM473.183 160.439C472.472 160.439 471.858 160.292 471.341 159.996C470.827 159.698 470.432 159.276 470.155 158.731C469.878 158.183 469.739 157.539 469.739 156.797C469.739 156.067 469.878 155.427 470.155 154.876C470.435 154.322 470.825 153.892 471.327 153.584C471.829 153.273 472.418 153.118 473.095 153.118C473.532 153.118 473.945 153.188 474.332 153.33C474.723 153.468 475.068 153.684 475.367 153.976C475.668 154.269 475.905 154.641 476.077 155.093C476.25 155.543 476.336 156.078 476.336 156.7V157.212H470.524V156.086H474.734C474.731 155.766 474.662 155.481 474.526 155.232C474.391 154.98 474.202 154.781 473.958 154.636C473.718 154.492 473.438 154.419 473.118 154.419C472.777 154.419 472.477 154.502 472.218 154.669C471.96 154.832 471.758 155.047 471.613 155.315C471.472 155.58 471.399 155.871 471.396 156.188V157.171C471.396 157.583 471.472 157.937 471.623 158.233C471.773 158.525 471.984 158.75 472.255 158.907C472.526 159.06 472.843 159.137 473.206 159.137C473.449 159.137 473.669 159.104 473.866 159.036C474.063 158.965 474.234 158.862 474.379 158.727C474.523 158.591 474.633 158.423 474.706 158.223L476.267 158.399C476.168 158.811 475.981 159.171 475.704 159.479C475.43 159.784 475.079 160.021 474.651 160.19C474.223 160.356 473.734 160.439 473.183 160.439ZM479.421 150.846V160.301H477.75V150.846H479.421ZM484.279 160.439C483.568 160.439 482.954 160.292 482.437 159.996C481.923 159.698 481.527 159.276 481.25 158.731C480.973 158.183 480.835 157.539 480.835 156.797C480.835 156.067 480.973 155.427 481.25 154.876C481.53 154.322 481.921 153.892 482.423 153.584C482.924 153.273 483.514 153.118 484.191 153.118C484.628 153.118 485.04 153.188 485.428 153.33C485.819 153.468 486.164 153.684 486.462 153.976C486.764 154.269 487.001 154.641 487.173 155.093C487.346 155.543 487.432 156.078 487.432 156.7V157.212H481.62V156.086H485.83C485.827 155.766 485.757 155.481 485.622 155.232C485.487 154.98 485.297 154.781 485.054 154.636C484.814 154.492 484.534 154.419 484.214 154.419C483.872 154.419 483.572 154.502 483.314 154.669C483.055 154.832 482.854 155.047 482.709 155.315C482.567 155.58 482.495 155.871 482.492 156.188V157.171C482.492 157.583 482.567 157.937 482.718 158.233C482.869 158.525 483.08 158.75 483.351 158.907C483.622 159.06 483.939 159.137 484.302 159.137C484.545 159.137 484.765 159.104 484.962 159.036C485.159 158.965 485.33 158.862 485.474 158.727C485.619 158.591 485.728 158.423 485.802 158.223L487.362 158.399C487.264 158.811 487.076 159.171 486.799 159.479C486.525 159.784 486.174 160.021 485.747 160.19C485.319 160.356 484.83 160.439 484.279 160.439ZM491.939 160.439C491.231 160.439 490.623 160.284 490.115 159.973C489.61 159.662 489.221 159.233 488.947 158.685C488.676 158.134 488.541 157.5 488.541 156.783C488.541 156.063 488.679 155.427 488.956 154.876C489.233 154.322 489.624 153.892 490.129 153.584C490.637 153.273 491.237 153.118 491.929 153.118C492.505 153.118 493.014 153.224 493.457 153.436C493.904 153.645 494.259 153.942 494.524 154.327C494.788 154.709 494.939 155.155 494.976 155.666H493.379C493.314 155.324 493.16 155.04 492.917 154.812C492.677 154.581 492.356 154.466 491.952 154.466C491.611 154.466 491.311 154.558 491.052 154.743C490.794 154.924 490.592 155.186 490.447 155.527C490.306 155.869 490.235 156.278 490.235 156.755C490.235 157.239 490.306 157.654 490.447 158.002C490.589 158.346 490.787 158.613 491.043 158.8C491.301 158.985 491.605 159.077 491.952 159.077C492.199 159.077 492.419 159.031 492.613 158.939C492.809 158.844 492.974 158.707 493.106 158.528C493.239 158.35 493.33 158.133 493.379 157.877H494.976C494.936 158.379 494.788 158.824 494.533 159.211C494.278 159.596 493.93 159.898 493.49 160.116C493.05 160.332 492.533 160.439 491.939 160.439ZM499.889 153.21V154.502H495.813V153.21H499.889ZM496.819 151.511H498.49V158.168C498.49 158.393 498.524 158.565 498.592 158.685C498.663 158.802 498.755 158.882 498.869 158.925C498.983 158.968 499.109 158.99 499.248 158.99C499.352 158.99 499.448 158.982 499.534 158.967C499.623 158.951 499.691 158.937 499.737 158.925L500.019 160.232C499.929 160.262 499.802 160.296 499.635 160.333C499.472 160.37 499.272 160.392 499.035 160.398C498.617 160.41 498.24 160.347 497.904 160.208C497.569 160.067 497.302 159.848 497.106 159.553C496.912 159.257 496.816 158.888 496.819 158.445V151.511ZM504.17 152.282V150.846H511.713V152.282H508.791V160.301H507.092V152.282H504.17ZM515.158 160.439C514.466 160.439 513.866 160.287 513.358 159.982C512.85 159.678 512.456 159.251 512.176 158.703C511.899 158.156 511.761 157.516 511.761 156.783C511.761 156.051 511.899 155.409 512.176 154.858C512.456 154.307 512.85 153.879 513.358 153.575C513.866 153.27 514.466 153.118 515.158 153.118C515.851 153.118 516.451 153.27 516.959 153.575C517.466 153.879 517.859 154.307 518.136 154.858C518.416 155.409 518.556 156.051 518.556 156.783C518.556 157.516 518.416 158.156 518.136 158.703C517.859 159.251 517.466 159.678 516.959 159.982C516.451 160.287 515.851 160.439 515.158 160.439ZM515.167 159.1C515.543 159.1 515.857 158.997 516.109 158.791C516.362 158.582 516.549 158.302 516.672 157.951C516.799 157.6 516.862 157.209 516.862 156.778C516.862 156.344 516.799 155.952 516.672 155.601C516.549 155.247 516.362 154.966 516.109 154.756C515.857 154.547 515.543 154.442 515.167 154.442C514.783 154.442 514.463 154.547 514.207 154.756C513.955 154.966 513.766 155.247 513.639 155.601C513.516 155.952 513.455 156.344 513.455 156.778C513.455 157.209 513.516 157.6 513.639 157.951C513.766 158.302 513.955 158.582 514.207 158.791C514.463 158.997 514.783 159.1 515.167 159.1ZM521.646 156.146V160.301H519.974V153.21H521.572V154.415H521.655C521.818 154.018 522.078 153.702 522.435 153.468C522.795 153.234 523.24 153.118 523.769 153.118C524.258 153.118 524.685 153.222 525.048 153.431C525.414 153.641 525.697 153.944 525.897 154.341C526.1 154.738 526.2 155.22 526.197 155.786V160.301H524.526V156.044C524.526 155.57 524.403 155.2 524.157 154.932C523.914 154.664 523.577 154.53 523.146 154.53C522.854 154.53 522.593 154.595 522.366 154.724C522.141 154.85 521.964 155.033 521.835 155.273C521.709 155.513 521.646 155.804 521.646 156.146ZM531.035 160.439C530.325 160.439 529.711 160.292 529.193 159.996C528.68 159.698 528.284 159.276 528.007 158.731C527.73 158.183 527.592 157.539 527.592 156.797C527.592 156.067 527.73 155.427 528.007 154.876C528.287 154.322 528.678 153.892 529.18 153.584C529.681 153.273 530.271 153.118 530.948 153.118C531.385 153.118 531.797 153.188 532.185 153.33C532.576 153.468 532.921 153.684 533.219 153.976C533.521 154.269 533.758 154.641 533.93 155.093C534.102 155.543 534.189 156.078 534.189 156.7V157.212H528.376V156.086H532.587C532.584 155.766 532.514 155.481 532.379 155.232C532.243 154.98 532.054 154.781 531.811 154.636C531.571 154.492 531.291 154.419 530.971 154.419C530.629 154.419 530.329 154.502 530.071 154.669C529.812 154.832 529.611 155.047 529.466 155.315C529.324 155.58 529.252 155.871 529.249 156.188V157.171C529.249 157.583 529.324 157.937 529.475 158.233C529.626 158.525 529.837 158.75 530.108 158.907C530.378 159.06 530.695 159.137 531.059 159.137C531.302 159.137 531.522 159.104 531.719 159.036C531.916 158.965 532.086 158.862 532.231 158.727C532.376 158.591 532.485 158.423 532.559 158.223L534.119 158.399C534.021 158.811 533.833 159.171 533.556 159.479C533.282 159.784 532.931 160.021 532.504 160.19C532.076 160.356 531.586 160.439 531.035 160.439Z" fill="white" fill-opacity="0.76"/>
<path fill-rule="evenodd" clip-rule="evenodd" d="M548.243 158.015L544.228 153.999L545.259 152.968L548.243 155.952L551.228 152.968L552.259 153.999L548.243 158.015Z" fill="white" fill-opacity="0.76"/>
<path d="M23.5892 244.255H27.9572V248.959H26.8652V247.783H26.6972C26.5385 248.194 26.2585 248.525 25.8572 248.777C25.4558 249.029 24.9892 249.155 24.4572 249.155C23.4025 249.155 22.5718 248.814 21.9652 248.133C21.3678 247.452 21.0692 246.458 21.0692 245.151V242.967C21.0692 241.698 21.3725 240.713 21.9792 240.013C22.5858 239.313 23.4305 238.963 24.5132 238.963C25.0732 238.963 25.5678 239.056 25.9972 239.243C26.4265 239.42 26.7858 239.672 27.0752 239.999C27.3645 240.316 27.5838 240.694 27.7332 241.133C27.8825 241.562 27.9572 242.024 27.9572 242.519V242.687H26.7812V242.519C26.7812 242.202 26.7345 241.894 26.6412 241.595C26.5572 241.296 26.4218 241.035 26.2352 240.811C26.0578 240.578 25.8245 240.396 25.5352 240.265C25.2552 240.125 24.9145 240.055 24.5132 240.055C23.7572 240.055 23.1878 240.33 22.8052 240.881C22.4318 241.432 22.2452 242.155 22.2452 243.051V245.067C22.2452 246.028 22.4318 246.77 22.8052 247.293C23.1878 247.806 23.7665 248.063 24.5412 248.063C25.2412 248.063 25.7872 247.839 26.1792 247.391C26.5805 246.943 26.7812 246.318 26.7812 245.515V245.347H23.5892V244.255ZM34.9894 242.015H36.0814V248.959H34.9894V247.699H34.8214C34.5974 248.147 34.3034 248.502 33.9394 248.763C33.5754 249.024 33.1134 249.155 32.5534 249.155C32.1708 249.155 31.8161 249.09 31.4894 248.959C31.1721 248.838 30.8968 248.651 30.6634 248.399C30.4394 248.147 30.2621 247.834 30.1314 247.461C30.0101 247.088 29.9494 246.654 29.9494 246.159V242.015H31.0414V246.019C31.0414 246.747 31.1908 247.279 31.4894 247.615C31.7881 247.951 32.2454 248.119 32.8614 248.119C33.5241 248.119 34.0421 247.895 34.4154 247.447C34.7981 246.99 34.9894 246.383 34.9894 245.627V242.015ZM40.7617 239.943C40.7617 239.672 40.855 239.444 41.0417 239.257C41.2377 239.061 41.471 238.963 41.7417 238.963C42.0124 238.963 42.241 239.061 42.4277 239.257C42.6237 239.444 42.7217 239.672 42.7217 239.943C42.7217 240.214 42.6237 240.447 42.4277 240.643C42.241 240.83 42.0124 240.923 41.7417 240.923C41.471 240.923 41.2377 240.83 41.0417 240.643C40.855 240.447 40.7617 240.214 40.7617 239.943ZM38.7737 247.951H41.2097V243.023H39.0257V242.015H42.3017V247.951H44.5697V248.959H38.7737V247.951ZM52.554 247.895H52.386C52.274 248.11 52.1293 248.296 51.952 248.455C51.784 248.614 51.5973 248.744 51.392 248.847C51.196 248.95 50.986 249.024 50.762 249.071C50.538 249.127 50.3233 249.155 50.118 249.155C49.6513 249.155 49.2173 249.076 48.816 248.917C48.4146 248.758 48.06 248.53 47.752 248.231C47.4533 247.932 47.2153 247.564 47.038 247.125C46.87 246.677 46.786 246.168 46.786 245.599V245.375C46.786 244.815 46.8746 244.316 47.052 243.877C47.2293 243.429 47.4673 243.056 47.766 242.757C48.0646 242.449 48.4146 242.216 48.816 242.057C49.2173 241.898 49.642 241.819 50.09 241.819C50.566 241.819 51.0093 241.926 51.42 242.141C51.84 242.346 52.162 242.668 52.386 243.107H52.554V239.159H53.646V248.959H52.554V247.895ZM50.23 248.119C50.5566 248.119 50.86 248.058 51.14 247.937C51.42 247.816 51.6626 247.643 51.868 247.419C52.0826 247.195 52.2506 246.929 52.372 246.621C52.4933 246.304 52.554 245.954 52.554 245.571V245.403C52.554 245.03 52.4933 244.689 52.372 244.381C52.2506 244.064 52.0826 243.793 51.868 243.569C51.6626 243.345 51.4153 243.172 51.126 243.051C50.846 242.92 50.5473 242.855 50.23 242.855C49.9033 242.855 49.5953 242.916 49.306 243.037C49.026 243.158 48.7786 243.331 48.564 243.555C48.3586 243.779 48.1953 244.045 48.074 244.353C47.962 244.661 47.906 245.002 47.906 245.375V245.599C47.906 245.991 47.962 246.341 48.074 246.649C48.1953 246.957 48.3586 247.223 48.564 247.447C48.7786 247.662 49.026 247.83 49.306 247.951C49.586 248.063 49.894 248.119 50.23 248.119ZM56.5482 245.823C56.5762 246.514 56.7909 247.069 57.1922 247.489C57.5936 247.909 58.1536 248.119 58.8722 248.119C59.1989 248.119 59.4836 248.082 59.7262 248.007C59.9689 247.932 60.1742 247.83 60.3422 247.699C60.5196 247.568 60.6596 247.419 60.7622 247.251C60.8742 247.074 60.9629 246.887 61.0282 246.691L62.0642 246.971C61.8682 247.615 61.5042 248.142 60.9722 248.553C60.4496 248.954 59.7402 249.155 58.8442 249.155C58.3496 249.155 57.8922 249.071 57.4722 248.903C57.0616 248.726 56.7069 248.478 56.4082 248.161C56.1096 247.844 55.8762 247.466 55.7082 247.027C55.5402 246.588 55.4562 246.103 55.4562 245.571V245.235C55.4562 244.75 55.5402 244.297 55.7082 243.877C55.8856 243.457 56.1282 243.098 56.4362 242.799C56.7442 242.491 57.1036 242.253 57.5142 242.085C57.9342 241.908 58.3869 241.819 58.8722 241.819C59.4416 241.819 59.9316 241.926 60.3422 242.141C60.7622 242.346 61.1029 242.603 61.3642 242.911C61.6349 243.219 61.8309 243.555 61.9522 243.919C62.0829 244.283 62.1482 244.619 62.1482 244.927V245.823H56.5482ZM58.8722 242.855C58.5642 242.855 58.2749 242.906 58.0042 243.009C57.7429 243.102 57.5096 243.238 57.3042 243.415C57.1082 243.592 56.9449 243.802 56.8142 244.045C56.6929 244.278 56.6136 244.535 56.5762 244.815H61.0562C61.0376 244.516 60.9629 244.246 60.8322 244.003C60.7109 243.76 60.5476 243.555 60.3422 243.387C60.1462 243.219 59.9176 243.088 59.6562 242.995C59.4042 242.902 59.1429 242.855 58.8722 242.855ZM64.3225 247.951H66.8425V240.167H64.4065V239.159H67.9345V247.951H70.4545V248.959H64.3225V247.951ZM75.0508 239.943C75.0508 239.672 75.1441 239.444 75.3308 239.257C75.5268 239.061 75.7601 238.963 76.0308 238.963C76.3014 238.963 76.5301 239.061 76.7168 239.257C76.9128 239.444 77.0108 239.672 77.0108 239.943C77.0108 240.214 76.9128 240.447 76.7168 240.643C76.5301 240.83 76.3014 240.923 76.0308 240.923C75.7601 240.923 75.5268 240.83 75.3308 240.643C75.1441 240.447 75.0508 240.214 75.0508 239.943ZM73.0628 247.951H75.4988V243.023H73.3148V242.015H76.5908V247.951H78.8588V248.959H73.0628V247.951ZM82.559 248.959H81.467V242.015H82.559V243.191H82.727C83.1564 242.276 83.903 241.819 84.967 241.819C85.7697 241.819 86.409 242.071 86.885 242.575C87.361 243.07 87.599 243.816 87.599 244.815V248.959H86.507V245.039C86.507 244.311 86.3437 243.765 86.017 243.401C85.6904 243.037 85.247 242.855 84.687 242.855C84.0244 242.855 83.5017 243.084 83.119 243.541C82.7457 243.989 82.559 244.591 82.559 245.347V248.959ZM90.8373 245.823C90.8653 246.514 91.08 247.069 91.4813 247.489C91.8826 247.909 92.4426 248.119 93.1613 248.119C93.488 248.119 93.7726 248.082 94.0153 248.007C94.258 247.932 94.4633 247.83 94.6313 247.699C94.8086 247.568 94.9486 247.419 95.0513 247.251C95.1633 247.074 95.252 246.887 95.3173 246.691L96.3533 246.971C96.1573 247.615 95.7933 248.142 95.2613 248.553C94.7386 248.954 94.0293 249.155 93.1333 249.155C92.6386 249.155 92.1813 249.071 91.7613 248.903C91.3506 248.726 90.996 248.478 90.6973 248.161C90.3986 247.844 90.1653 247.466 89.9973 247.027C89.8293 246.588 89.7453 246.103 89.7453 245.571V245.235C89.7453 244.75 89.8293 244.297 89.9973 243.877C90.1746 243.457 90.4173 243.098 90.7253 242.799C91.0333 242.491 91.3926 242.253 91.8033 242.085C92.2233 241.908 92.676 241.819 93.1613 241.819C93.7306 241.819 94.2206 241.926 94.6313 242.141C95.0513 242.346 95.392 242.603 95.6533 242.911C95.924 243.219 96.12 243.555 96.2413 243.919C96.372 244.283 96.4373 244.619 96.4373 244.927V245.823H90.8373ZM93.1613 242.855C92.8533 242.855 92.564 242.906 92.2933 243.009C92.032 243.102 91.7986 243.238 91.5933 243.415C91.3973 243.592 91.234 243.802 91.1033 244.045C90.982 244.278 90.9026 244.535 90.8653 244.815H95.3453C95.3266 244.516 95.252 244.246 95.1213 244.003C95 243.76 94.8366 243.555 94.6313 243.387C94.4353 243.219 94.2066 243.088 93.9453 242.995C93.6933 242.902 93.432 242.855 93.1613 242.855ZM100.054 243.807C100.054 244.143 100.194 244.4 100.474 244.577C100.763 244.754 101.286 244.871 102.042 244.927C102.854 244.992 103.47 245.188 103.89 245.515C104.319 245.832 104.534 246.299 104.534 246.915V246.999C104.534 247.335 104.464 247.638 104.324 247.909C104.193 248.17 104.006 248.394 103.764 248.581C103.53 248.768 103.241 248.908 102.896 249.001C102.56 249.104 102.191 249.155 101.79 249.155C101.248 249.155 100.782 249.085 100.39 248.945C100.007 248.796 99.6849 248.604 99.4236 248.371C99.1716 248.128 98.9802 247.858 98.8496 247.559C98.7189 247.251 98.6442 246.943 98.6256 246.635L99.6616 246.383C99.7082 246.915 99.9136 247.344 100.278 247.671C100.642 247.988 101.127 248.147 101.734 248.147C102.247 248.147 102.658 248.049 102.966 247.853C103.283 247.648 103.442 247.363 103.442 246.999C103.442 246.607 103.288 246.327 102.98 246.159C102.672 245.991 102.172 245.884 101.482 245.837C100.679 245.781 100.063 245.594 99.6336 245.277C99.2042 244.96 98.9896 244.498 98.9896 243.891V243.807C98.9896 243.48 99.0596 243.196 99.1996 242.953C99.3396 242.701 99.5262 242.491 99.7596 242.323C100.002 242.155 100.273 242.029 100.572 241.945C100.87 241.861 101.183 241.819 101.51 241.819C101.967 241.819 102.368 241.884 102.714 242.015C103.059 242.136 103.348 242.3 103.582 242.505C103.815 242.701 103.992 242.93 104.114 243.191C104.244 243.452 104.328 243.714 104.366 243.975L103.33 244.227C103.283 243.779 103.101 243.429 102.784 243.177C102.476 242.925 102.07 242.799 101.566 242.799C101.37 242.799 101.178 242.822 100.992 242.869C100.814 242.906 100.656 242.967 100.516 243.051C100.376 243.135 100.264 243.242 100.18 243.373C100.096 243.494 100.054 243.639 100.054 243.807Z" fill="#D7D7D7"/>
<rect x="20.7432" y="262.459" width="570.514" height="107" rx="11.5" stroke="white" stroke-opacity="0.08"/>
<mask id="path-41-inside-1_142_2958" fill="white">
<path d="M20.2432 261.959H306V369.959H20.2432V261.959Z"/>
</mask>
<path d="M306 261.959H305V369.959H306H307V261.959H306Z" fill="white" fill-opacity="0.08" mask="url(#path-41-inside-1_142_2958)"/>
<path d="M40.6182 288.959H37.4761V278.777H40.7574C41.7451 278.777 42.5902 278.981 43.2929 279.389C43.9955 279.793 44.5341 280.375 44.9086 281.134C45.2832 281.889 45.4704 282.794 45.4704 283.848C45.4704 284.909 45.2815 285.822 44.9037 286.588C44.5258 287.35 43.9756 287.936 43.2531 288.347C42.5306 288.755 41.6523 288.959 40.6182 288.959ZM38.7091 287.865H40.5386C41.3805 287.865 42.0782 287.703 42.6317 287.378C43.1852 287.053 43.5978 286.591 43.8696 285.991C44.1414 285.391 44.2773 284.677 44.2773 283.848C44.2773 283.026 44.143 282.319 43.8746 281.725C43.6061 281.129 43.205 280.671 42.6714 280.353C42.1378 280.032 41.4733 279.871 40.6778 279.871H38.7091V287.865ZM50.4818 289.118C49.7924 289.118 49.1875 288.954 48.6672 288.626C48.1501 288.298 47.7458 287.839 47.4541 287.249C47.1657 286.659 47.0216 285.969 47.0216 285.181C47.0216 284.385 47.1657 283.691 47.4541 283.097C47.7458 282.504 48.1501 282.044 48.6672 281.715C49.1875 281.387 49.7924 281.223 50.4818 281.223C51.1712 281.223 51.7744 281.387 52.2915 281.715C52.8118 282.044 53.2162 282.504 53.5045 283.097C53.7962 283.691 53.942 284.385 53.942 285.181C53.942 285.969 53.7962 286.659 53.5045 287.249C53.2162 287.839 52.8118 288.298 52.2915 288.626C51.7744 288.954 51.1712 289.118 50.4818 289.118ZM50.4818 288.064C51.0055 288.064 51.4363 287.93 51.7744 287.661C52.1125 287.393 52.3627 287.04 52.5251 286.602C52.6875 286.165 52.7687 285.691 52.7687 285.181C52.7687 284.67 52.6875 284.195 52.5251 283.754C52.3627 283.313 52.1125 282.957 51.7744 282.685C51.4363 282.413 51.0055 282.277 50.4818 282.277C49.9581 282.277 49.5273 282.413 49.1892 282.685C48.8511 282.957 48.6009 283.313 48.4385 283.754C48.2761 284.195 48.1949 284.67 48.1949 285.181C48.1949 285.691 48.2761 286.165 48.4385 286.602C48.6009 287.04 48.8511 287.393 49.1892 287.661C49.5273 287.93 49.9581 288.064 50.4818 288.064Z" fill="#D7D7D7"/>
<path opacity="0.9" d="M326.375 288.959H323.233V278.777H326.514C327.502 278.777 328.347 278.981 329.05 279.389C329.752 279.793 330.291 280.375 330.665 281.134C331.04 281.889 331.227 282.794 331.227 283.848C331.227 284.909 331.038 285.822 330.661 286.588C330.283 287.35 329.732 287.936 329.01 288.347C328.287 288.755 327.409 288.959 326.375 288.959ZM324.466 287.865H326.295C327.137 287.865 327.835 287.703 328.388 287.378C328.942 287.053 329.355 286.591 329.626 285.991C329.898 285.391 330.034 284.677 330.034 283.848C330.034 283.026 329.9 282.319 329.631 281.725C329.363 281.129 328.962 280.671 328.428 280.353C327.895 280.032 327.23 279.871 326.435 279.871H324.466V287.865ZM336.239 289.118C335.549 289.118 334.944 288.954 334.424 288.626C333.907 288.298 333.503 287.839 333.211 287.249C332.923 286.659 332.778 285.969 332.778 285.181C332.778 284.385 332.923 283.691 333.211 283.097C333.503 282.504 333.907 282.044 334.424 281.715C334.944 281.387 335.549 281.223 336.239 281.223C336.928 281.223 337.531 281.387 338.048 281.715C338.569 282.044 338.973 282.504 339.261 283.097C339.553 283.691 339.699 284.385 339.699 285.181C339.699 285.969 339.553 286.659 339.261 287.249C338.973 287.839 338.569 288.298 338.048 288.626C337.531 288.954 336.928 289.118 336.239 289.118ZM336.239 288.064C336.762 288.064 337.193 287.93 337.531 287.661C337.869 287.393 338.12 287.04 338.282 286.602C338.444 286.165 338.526 285.691 338.526 285.181C338.526 284.67 338.444 284.195 338.282 283.754C338.12 283.313 337.869 282.957 337.531 282.685C337.193 282.413 336.762 282.277 336.239 282.277C335.715 282.277 335.284 282.413 334.946 282.685C334.608 282.957 334.358 283.313 334.195 283.754C334.033 284.195 333.952 284.67 333.952 285.181C333.952 285.691 334.033 286.165 334.195 286.602C334.358 287.04 334.608 287.393 334.946 287.661C335.284 287.93 335.715 288.064 336.239 288.064ZM342.663 284.365V288.959H341.49V281.323H342.623V282.516H342.723C342.902 282.128 343.174 281.816 343.538 281.581C343.903 281.343 344.373 281.223 344.95 281.223C345.467 281.223 345.92 281.329 346.307 281.541C346.695 281.75 346.997 282.068 347.212 282.496C347.428 282.92 347.535 283.457 347.535 284.107V288.959H346.362V284.186C346.362 283.586 346.206 283.119 345.895 282.784C345.583 282.446 345.156 282.277 344.612 282.277C344.238 282.277 343.903 282.358 343.608 282.521C343.316 282.683 343.086 282.92 342.917 283.232C342.748 283.543 342.663 283.921 342.663 284.365ZM350.713 278.777V279.672C350.713 279.944 350.664 280.234 350.564 280.542C350.468 280.847 350.326 281.144 350.137 281.432C349.951 281.717 349.726 281.966 349.461 282.178L348.824 281.661C349.033 281.362 349.214 281.052 349.366 280.731C349.522 280.406 349.6 280.06 349.6 279.692V278.777H350.713ZM355.789 281.323V282.317H351.832V281.323H355.789ZM352.985 279.493H354.159V286.771C354.159 287.103 354.207 287.352 354.303 287.517C354.402 287.68 354.528 287.789 354.681 287.845C354.837 287.898 355.001 287.925 355.173 287.925C355.302 287.925 355.408 287.918 355.491 287.905C355.574 287.888 355.64 287.875 355.69 287.865L355.929 288.919C355.849 288.949 355.738 288.979 355.596 289.009C355.453 289.042 355.272 289.058 355.054 289.058C354.722 289.058 354.397 288.987 354.079 288.845C353.764 288.702 353.502 288.485 353.294 288.193C353.088 287.902 352.985 287.534 352.985 287.09V279.493ZM364.375 289.118C363.739 289.118 363.177 288.957 362.69 288.636C362.203 288.311 361.822 287.854 361.547 287.264C361.271 286.67 361.134 285.969 361.134 285.161C361.134 284.359 361.271 283.663 361.547 283.073C361.822 282.483 362.204 282.027 362.695 281.705C363.185 281.384 363.752 281.223 364.395 281.223C364.892 281.223 365.285 281.306 365.574 281.472C365.865 281.634 366.087 281.82 366.24 282.029C366.395 282.234 366.516 282.403 366.603 282.536H366.702V278.777H367.875V288.959H366.742V287.786H366.603C366.516 287.925 366.394 288.101 366.235 288.313C366.076 288.521 365.849 288.709 365.554 288.874C365.259 289.037 364.866 289.118 364.375 289.118ZM364.534 288.064C365.005 288.064 365.403 287.941 365.728 287.696C366.052 287.448 366.299 287.105 366.468 286.667C366.637 286.226 366.722 285.718 366.722 285.141C366.722 284.571 366.639 284.072 366.473 283.644C366.308 283.213 366.062 282.879 365.738 282.64C365.413 282.398 365.012 282.277 364.534 282.277C364.037 282.277 363.623 282.405 363.292 282.66C362.963 282.912 362.717 283.255 362.551 283.689C362.388 284.12 362.307 284.604 362.307 285.141C362.307 285.684 362.39 286.178 362.556 286.622C362.725 287.063 362.973 287.414 363.301 287.676C363.633 287.935 364.044 288.064 364.534 288.064ZM373.289 289.118C372.6 289.118 371.995 288.954 371.475 288.626C370.958 288.298 370.553 287.839 370.262 287.249C369.973 286.659 369.829 285.969 369.829 285.181C369.829 284.385 369.973 283.691 370.262 283.097C370.553 282.504 370.958 282.044 371.475 281.715C371.995 281.387 372.6 281.223 373.289 281.223C373.979 281.223 374.582 281.387 375.099 281.715C375.619 282.044 376.024 282.504 376.312 283.097C376.604 283.691 376.75 284.385 376.75 285.181C376.75 285.969 376.604 286.659 376.312 287.249C376.024 287.839 375.619 288.298 375.099 288.626C374.582 288.954 373.979 289.118 373.289 289.118ZM373.289 288.064C373.813 288.064 374.244 287.93 374.582 287.661C374.92 287.393 375.17 287.04 375.333 286.602C375.495 286.165 375.576 285.691 375.576 285.181C375.576 284.67 375.495 284.195 375.333 283.754C375.17 283.313 374.92 282.957 374.582 282.685C374.244 282.413 373.813 282.277 373.289 282.277C372.766 282.277 372.335 282.413 371.997 282.685C371.659 282.957 371.408 283.313 371.246 283.754C371.084 284.195 371.002 284.67 371.002 285.181C371.002 285.691 371.084 286.165 371.246 286.602C371.408 287.04 371.659 287.393 371.997 287.661C372.335 287.93 372.766 288.064 373.289 288.064Z" fill="#FFA7A7"/>
</g>
<defs>
<filter id="filter0_d_142_2958" x="0.585603" y="0.0712891" width="610.829" height="404.288" filterUnits="userSpaceOnUse" color-interpolation-filters="sRGB">
<feFlood flood-opacity="0" result="BackgroundImageFix"/>
<feColorMatrix in="SourceAlpha" type="matrix" values="0 0 0 0 0 0 0 0 0 0 0 0 0 0 0 0 0 0 127 0" result="hardAlpha"/>
<feOffset dy="4.9144"/>
<feGaussianBlur stdDeviation="2.4572"/>
<feComposite in2="hardAlpha" operator="out"/>
<feColorMatrix type="matrix" values="0 0 0 0 0 0 0 0 0 0 0 0 0 0 0 0 0 0 0.25 0"/>
<feBlend mode="normal" in2="BackgroundImageFix" result="effect1_dropShadow_142_2958"/>
<feBlend mode="normal" in="SourceGraphic" in2="effect1_dropShadow_142_2958" result="shape"/>
</filter>
</defs>
</svg>
